<svg width="1em" height="1em" viewBox="0 0 64 89" fill="none" xmlns="http://www.w3.org/2000/svg">
<circle cx="28" cy="61" r="28" fill="#00CA4E" fill-opacity="0.25"/>
<path d="M63.4116 22.7525C61.9722 15.0233 57.5524 7.56834 50.8917 3.34671C43.0625 -1.61755 33.4327 -0.6007 25.4511 3.40384C13.8174 9.70485 5.05123 22.3869 7.3712 36.1657C8.6469 43.7292 13.2586 50.0587 19.0557 54.8002C21.4152 56.7311 25.214 57.7879 27.0994 60.1586C27.3534 60.4785 27.5566 60.827 27.7203 61.1983C27.7485 61.3412 27.7993 61.4725 27.867 61.5925C28.7984 64.2489 28.0194 67.9449 28.1944 70.5156C28.3468 72.7378 28.7758 75.1885 30.6668 76.571C33.365 78.5418 38.225 78.0905 41.2957 77.5364C50.6772 75.8455 43.1303 64.8944 47.8492 59.4331C50.2651 56.6397 53.5842 54.8288 55.9663 51.9211C58.2072 49.1847 60.0022 46.1399 61.3344 42.8494C63.897 36.5141 64.6591 29.4819 63.4116 22.7525ZM34.477 45.6315C35.747 45.0888 36.9663 44.3461 38.0557 43.5178C38.8403 44.0605 39.7096 44.4947 40.624 44.8031C39.6136 48.9848 39.7491 53.2921 40.8103 57.3937C37.7396 58.1192 34.6519 58.4391 31.5022 58.3706C32.0836 55.9313 32.6255 53.4749 33.2351 51.0413C33.6641 49.299 34.2568 47.4652 34.477 45.6315ZM38.2307 39.1991C37.5082 38.0851 37.4404 36.8969 38.0218 35.6344C40.0539 35.3716 40.7256 35.6915 40.037 36.5941C39.8563 37.5024 39.1564 38.4336 38.2815 39.279C38.2702 39.2505 38.2476 39.2276 38.2307 39.1991ZM31.3159 65.3514C35.2785 65.5342 39.162 65.0544 42.9553 63.9118C42.944 64.1632 42.9383 64.4202 42.9383 64.6716C39.1846 66.1512 35.3406 66.8195 31.2934 66.6425C31.3103 66.3054 31.3216 65.9855 31.3216 65.7056C31.3216 65.5799 31.3159 65.4714 31.3159 65.3514ZM41.9618 60.8956C38.3887 61.9467 34.7648 62.358 31.0281 62.1581C30.9829 61.941 30.9377 61.7296 30.8869 61.524C34.5729 61.6611 38.2024 61.2955 41.7812 60.4271C41.8433 60.5814 41.8997 60.7356 41.9618 60.8956ZM31.2595 71.1383C31.203 70.7098 31.1805 70.2643 31.1692 69.813C31.1748 69.813 31.1805 69.813 31.1805 69.813C35.2898 70.0072 39.2693 69.4016 43.102 67.9906C43.1246 68.3048 43.1528 68.6247 43.1698 68.9389C39.7999 70.9269 35.1035 71.1154 31.2595 71.1383ZM37.6719 74.7087C36.3171 74.7372 34.4995 74.8629 33.1843 74.2859C36.4865 74.1831 40.0821 73.8118 43.0964 72.5379C42.436 74.6344 39.7096 74.663 37.6719 74.7087ZM47.8097 55.2287C46.4832 56.3026 45.3486 57.4337 44.5019 58.7648C44.4455 58.6105 44.3834 58.4506 44.3326 58.2963C44.3044 58.1135 44.2479 57.9364 44.1689 57.7708C42.9214 53.7719 42.6392 49.4132 43.7117 45.363C44.1181 45.3744 44.5189 45.3744 44.9196 45.3344C47.5444 45.0888 53.0141 42.3867 50.2538 38.942C48.9048 37.2511 46.2631 37.4853 44.5753 38.445C43.2149 39.2219 42.2836 40.4501 41.6288 41.8383C41.228 41.7069 40.8385 41.5355 40.466 41.3299C40.5224 41.267 40.5789 41.2099 40.6353 41.1528C42.8029 38.7078 46.3534 32.9495 41.2393 31.4356C37.4461 30.316 34.1778 34.1548 34.5221 37.7595C34.6463 39.0734 35.1035 40.2445 35.7865 41.2556C35.2898 41.5812 34.8213 41.8554 34.4318 42.0668C34.3866 42.0896 34.3358 42.1125 34.2907 42.1354C33.3424 38.5593 29.3967 35.8286 26.0382 38.3879C22.6626 40.9643 25.1407 45.6657 28.6516 46.4255C29.4927 46.6083 30.3563 46.6312 31.2256 46.5341C30.8982 48.0765 30.3451 49.6132 30.0515 50.8071C29.5153 53.0065 29.0186 55.2115 28.4992 57.4109C27.6977 56.634 26.7042 55.9085 25.468 55.2001C19.5411 51.8068 14.3932 46.8882 11.8079 40.3873C6.33258 26.6313 15.0818 12.6297 27.0373 6.15732C34.031 2.64406 42.4416 1.75861 49.3055 6.09448C55.0462 9.72199 58.783 16.1373 60.1998 22.7296C62.9262 35.3945 57.496 47.3738 47.8097 55.2287ZM45.2357 41.8097C45.8679 40.85 46.2292 40.8329 46.2969 41.7926C45.9808 41.724 45.6196 41.7526 45.2357 41.8097ZM31.3837 43.215C30.1983 43.5692 29.0806 43.375 28.0307 42.6323C27.9912 40.1131 28.9226 39.8503 30.8305 41.844C31.1127 42.2553 31.2821 42.718 31.3837 43.215Z" fill="black"/>
<path d="M22.2519 11.5479C16.1161 18.563 9.3312 27.4061 13.147 37.2947C13.8752 39.1798 16.9177 38.3572 16.1782 36.4492C12.7914 27.6804 19.0626 19.9912 24.4702 13.8044C25.808 12.2734 23.5953 10.0112 22.2519 11.5479Z" fill="black"/>
<path d="M19.469 42.0368C19.4521 42.0139 19.3223 41.8711 19.2376 41.774C19.2263 41.7568 19.2037 41.7283 19.1699 41.6769C19.1134 41.5969 19.057 41.5169 19.0005 41.4369C18.532 40.7571 17.6006 40.3744 16.8499 40.8657C16.1838 41.2998 15.783 42.311 16.2854 43.0422C16.7822 43.762 17.3353 44.4361 17.9675 45.0359C18.5715 45.6014 19.5988 45.6871 20.1915 45.0359C20.7504 44.4246 20.835 43.3907 20.1915 42.7851C19.9432 42.5452 19.6948 42.2995 19.469 42.0368Z" fill="black"/>
</svg>
