<svg width="1em" height="1em" viewBox="0 0 108 87" fill="none" xmlns="http://www.w3.org/2000/svg">
<circle cx="80" cy="28" r="28" fill="#00CA4E" fill-opacity="0.25"/>
<path d="M30.7337 46L19.5332 56.9806L30.5374 65.9505" stroke="black" stroke-width="5" stroke-miterlimit="10" stroke-linecap="round" stroke-linejoin="round"/>
<path d="M61.2637 46L72.4564 56.9806L61.4522 65.9505" stroke="black" stroke-width="5" stroke-miterlimit="10" stroke-linecap="round" stroke-linejoin="round"/>
<path d="M52.1213 39L39.2085 73.4342" stroke="black" stroke-width="5" stroke-miterlimit="10" stroke-linecap="round" stroke-linejoin="round"/>
<path d="M0.85723 86.4572C1.19497 86.7242 1.62697 86.897 2.17679 86.9049C32.7701 87.1484 63.2378 86.1351 93.8154 85.4125C94.97 85.3889 96.0382 84.4307 95.9989 83.229C95.4177 65.1007 94.7344 47.0118 93.297 28.9228C93.2027 27.6897 92.3702 26.81 91.1134 26.7393C61.6983 25.0506 32.5816 26.5429 3.22929 28.3338C2.05897 28.4045 1.03003 29.2763 1.04574 30.5173C1.21854 48.567 0.448796 66.6716 0.00108862 84.7135C-0.0224749 85.546 0.338833 86.1194 0.85723 86.4572ZM89.0791 31.0122C90.3515 47.6951 91.0113 64.386 91.5533 81.1004C62.4837 81.7994 33.5084 82.7106 4.42318 82.5456C4.86303 65.9019 5.52281 49.2189 5.4207 32.5752C33.3592 30.8865 61.0935 29.5434 89.0791 31.0122Z" fill="black"/>
</svg>
