<svg width="1em" height="1em" viewBox="0 0 315 310" fill="none" xmlns="http://www.w3.org/2000/svg">
<path d="M64.4593 217.25C86.7092 196.737 88.5116 209.852 98.3029 219.054C108.094 228.255 122.167 230.058 99.9168 250.571C77.6669 271.085 17.7288 293.339 17.7288 293.339C17.7288 293.339 42.2094 237.764 64.4593 217.25Z" fill="url(#paint0_linear_913_172)"/>
<path opacity="0.1" d="M77.0779 221.901C88.0123 212.41 88.5897 218.612 93.0213 223.035C97.4528 227.457 104.06 228.425 93.1258 237.916C82.1914 247.406 53.4243 257.404 53.4243 257.404C53.4243 257.404 66.1435 231.392 77.0779 221.901Z" fill="black"/>
<path d="M67.108 160.705C67.108 160.705 71.3685 163.392 71.345 168.034C71.345 168.034 68.5797 167.896 66.5697 162.97L67.108 160.705Z" fill="#6C63FF"/>
<path d="M66.7561 160.286C66.7561 160.286 61.815 161.167 60.1689 165.499C60.1689 165.499 62.796 166.42 66.4354 162.595L66.7561 160.286Z" fill="#6C63FF"/>
<path d="M68.7744 153.522C68.7744 153.522 72.6484 152.062 75.3439 161.214C75.3439 161.214 72.9494 162.383 70.4234 159.907C67.8974 157.43 68.2163 155.588 68.7744 153.522Z" fill="#6C63FF"/>
<path d="M100.991 150.094C100.991 150.094 103.577 151.72 103.555 154.528C103.555 154.528 101.887 154.436 100.669 151.465L100.991 150.094Z" fill="#6C63FF"/>
<path d="M100.78 149.846C100.78 149.846 97.7947 150.381 96.8009 152.999C96.8009 152.999 98.3965 153.545 100.597 151.25L100.78 149.846Z" fill="#6C63FF"/>
<path d="M102.006 145.753C102.006 145.753 104.345 144.87 105.969 150.399C105.969 150.399 104.524 151.104 102.998 149.607C101.471 148.11 101.672 147.007 102.006 145.753Z" fill="#6C63FF"/>
<path d="M101.875 145.428C101.875 145.428 100.173 143.561 96.2796 147.747C96.2796 147.747 97.2603 149.045 99.2843 148.41C101.308 147.775 101.615 146.703 101.875 145.428Z" fill="#6C63FF"/>
<path d="M103.738 140.996C103.738 140.996 107.325 138.965 109.368 144.434C109.368 144.434 106.173 146.385 103.271 142.349L103.738 140.996Z" fill="#6C63FF"/>
<path d="M106.336 135.54C106.336 135.54 110.879 134.303 112.056 140.172C112.056 140.172 108.417 141.894 105.728 136.872L106.336 135.54Z" fill="#6C63FF"/>
<path d="M103.696 140.841C103.696 140.841 102.463 136.86 97.2723 139.406C97.2723 139.406 98.286 143.051 103.117 142.144L103.696 140.841Z" fill="#6C63FF"/>
<path d="M94.6181 179.405C93.8229 178.849 92.9738 178.376 92.0842 177.994C72.2629 169.48 35.8658 207.205 35.8658 207.205L31.678 203.012C31.678 203.012 46.0811 185.605 62.7648 156.9C77.7682 131.067 117.086 133.815 124.827 134.623C125.694 134.718 126.166 134.779 126.166 134.779C139.808 164.111 94.6181 179.405 94.6181 179.405Z" fill="#AFC0E0"/>
<path opacity="0.2" d="M127.086 136.988C126.817 136.265 126.521 135.538 126.175 134.797C126.175 134.797 125.709 134.74 124.836 134.64C117.095 133.833 77.777 131.085 62.7736 156.917C46.0899 185.622 31.6788 203.011 31.6788 203.011L34.0338 205.369C34.0338 205.369 48.45 187.975 65.1206 159.256C80.0515 133.541 119.096 136.152 127.086 136.988Z" fill="white"/>
<path d="M160.533 254.788C132.344 271.974 115.33 286.758 115.33 286.758L111.134 282.557C111.134 282.557 149.684 243.643 138.734 224.028C138.502 223.598 138.244 223.184 137.961 222.786C137.961 222.786 152.568 176.875 181.698 190.374C181.698 190.374 181.755 190.752 181.837 191.459C182.675 198.626 186.182 239.139 160.533 254.788Z" fill="#AFC0E0"/>
<path opacity="0.1" d="M94.6196 179.407C93.8244 178.85 92.9754 178.377 92.0858 177.995C101.914 162.732 112.857 148.236 124.824 134.629C125.691 134.724 126.162 134.786 126.162 134.786C139.81 164.112 94.6196 179.407 94.6196 179.407Z" fill="black"/>
<path opacity="0.1" d="M181.84 191.472C168.365 203.494 153.947 214.39 138.727 224.051C138.495 223.621 138.236 223.206 137.953 222.809C137.953 222.809 152.56 176.897 181.69 190.396C181.693 190.378 181.751 190.757 181.84 191.472Z" fill="black"/>
<path d="M131.169 227.472C123.952 231.868 116.332 236.161 108.308 240.353C108.308 240.353 89.2206 240.816 76.1351 208.144C76.1351 208.144 80.1754 199.407 88.4085 185.922C106.504 156.263 144.875 103.636 205.132 70.4466C223.207 60.4295 242.469 52.7695 262.461 47.6486C262.461 47.6486 260.885 73.5845 243.69 109.032C226.496 144.479 193.668 189.432 131.169 227.472Z" fill="#E3E8F4"/>
<path d="M169.478 146.665C179.911 157.11 196.7 157.05 206.979 146.532C217.257 136.015 217.132 119.021 206.7 108.577C196.267 98.1328 179.477 98.1924 169.199 108.71C158.92 119.228 159.045 136.221 169.478 146.665Z" fill="#AFC0E0"/>
<path d="M201.476 141.042C198.976 143.6 195.808 145.383 192.339 146.186C188.87 146.989 185.244 146.777 181.881 145.576C178.519 144.374 175.559 142.233 173.346 139.4C171.132 136.568 169.757 133.161 169.379 129.575C169.198 127.821 169.257 126.051 169.552 124.315C169.683 123.538 169.862 122.77 170.088 122.016C170.972 119.077 172.55 116.402 174.685 114.221C174.791 114.112 174.895 114.006 174.999 113.9C177.89 111.08 181.601 109.276 185.588 108.75C189.576 108.225 193.629 109.007 197.155 110.981C198.494 111.742 199.74 112.661 200.866 113.718L201.267 114.119C203.028 115.88 204.43 117.973 205.393 120.279C206.357 122.585 206.863 125.059 206.882 127.559C206.901 130.059 206.434 132.537 205.506 134.85C204.579 137.164 203.209 139.268 201.476 141.042Z" fill="#15579E"/>
<path d="M243.686 109.029C212.145 97.9181 205.126 70.4257 205.126 70.4257C223.203 60.4154 242.467 52.7625 262.46 47.6489C262.46 47.6489 260.883 73.5847 243.686 109.029Z" fill="#AFC0E0"/>
<path d="M131.168 227.472C126.279 230.446 121.209 233.374 115.958 236.256C113.457 237.634 110.908 238.996 108.313 240.342C108.313 240.342 89.2249 240.805 76.1394 208.133C76.1394 208.133 77.4509 205.296 80.0925 200.351C82.0965 196.624 84.8613 191.707 88.4049 185.903C88.4049 185.903 93.3133 198.028 105.336 210.064C112.738 217.525 121.517 223.441 131.168 227.472Z" fill="#AFC0E0"/>
<path d="M115.958 236.256C113.457 237.634 110.908 238.996 108.313 240.342C108.313 240.342 89.2247 240.805 76.1392 208.133C76.1392 208.133 77.4507 205.296 80.0923 200.351C80.0896 200.348 96.7074 230.292 115.958 236.256Z" fill="#E3E8F4"/>
<path opacity="0.2" d="M197.181 110.971L197.131 110.963L175.022 113.887C174.919 113.993 174.815 114.1 174.708 114.209C172.573 116.389 170.996 119.064 170.111 122.004L200.898 113.713L197.181 110.971Z" fill="white"/>
<path opacity="0.2" d="M189.116 125.515L169.389 129.567C169.209 127.813 169.267 126.043 169.563 124.307L189.096 123.539L189.116 125.515Z" fill="white"/>
<path opacity="0.2" d="M81.2302 213.234C81.2302 213.234 85.2731 204.495 93.5036 191.011C111.602 161.35 149.973 108.723 210.23 75.5339C226.509 66.5287 243.752 59.4245 261.628 54.3572C262.308 50.0468 262.45 47.6432 262.45 47.6432C242.461 52.7591 223.201 60.4138 205.127 70.4252C144.87 103.614 106.499 156.241 88.4007 185.903C80.1702 199.386 76.1273 208.125 76.1273 208.125C81.3006 221.031 87.4071 228.764 92.9018 233.402C88.8964 228.735 84.8408 222.24 81.2302 213.234Z" fill="white"/>
<defs>
<linearGradient id="paint0_linear_913_172" x1="76.1322" y1="272.5" x2="43.2352" y2="236.818" gradientUnits="userSpaceOnUse">
<stop stop-color="#4776E6"/>
<stop offset="1" stop-color="#8E54E9"/>
</linearGradient>
</defs>
</svg>
