<svg width="1em" height="1em" viewBox="0 0 435 312" fill="none" xmlns="http://www.w3.org/2000/svg">
<g clip-path="url(#clip0_913_1)">
<path d="M264.496 312C358.659 312 434.993 307.777 434.993 302.568C434.993 297.359 358.659 293.136 264.496 293.136C170.334 293.136 94 297.359 94 302.568C94 307.777 170.334 312 264.496 312Z" fill="#FFF1E2"/>
<path d="M217.379 48.1768C268.829 39.0053 310.001 55.8705 326.001 78.5169C342.001 101.163 369.278 86.6742 392.012 116.478C414.747 146.282 415.499 219.843 307.911 225.182C200.33 230.522 145.733 214.975 134.333 182.287C122.933 149.6 129.624 63.8178 217.379 48.1768Z" fill="#FFF1E2"/>
<path d="M201.878 68.0771C201.878 68.0771 218.254 110.052 285.705 116.326C353.155 122.599 376.172 100.243 399.695 106.763" stroke="#FF9A8D" stroke-miterlimit="10" stroke-linecap="round" stroke-linejoin="round" stroke-dasharray="5 5"/>
<path d="M183.281 69.4394L193.965 54.1099L208.836 49.6256L165.234 32.8545L183.281 69.4394Z" fill="#FF9A8D"/>
<path d="M165.234 32.8545L192.619 56.037L195.701 63.4336L197.046 53.1826L165.234 32.8545Z" fill="#D66F67"/>
<path d="M189.588 60.3911L195.701 63.4338L192.619 56.0371L189.588 60.3911Z" fill="#EF857D"/>
<path d="M157.296 113.856C168.865 108.062 173.555 93.972 167.77 82.3848C161.985 70.7975 147.917 66.1008 136.348 71.8944C124.778 77.6881 120.089 91.7781 125.874 103.365C131.658 114.953 145.727 119.649 157.296 113.856Z" stroke="#FF9A8D" stroke-linecap="round" stroke-linejoin="round" stroke-dasharray="5.08 5.08"/>
<path d="M406.175 168.271C412.538 165.664 415.586 158.384 412.982 152.011C410.378 145.638 403.11 142.586 396.747 145.193C390.384 147.801 387.336 155.081 389.94 161.454C392.543 167.827 399.812 170.879 406.175 168.271Z" stroke="#FF9A8D" stroke-miterlimit="10" stroke-linecap="round" stroke-linejoin="round" stroke-dasharray="5 5"/>
<path d="M240.923 32.1301C247.503 32.1301 252.836 26.788 252.836 20.1983C252.836 13.6086 247.503 8.2666 240.923 8.2666C234.344 8.2666 229.01 13.6086 229.01 20.1983C229.01 26.788 234.344 32.1301 240.923 32.1301Z" fill="#8CD3E8"/>
<path d="M244.815 24.9073C244.207 25.5593 243.375 25.9867 242.312 26.1823V27.9572H239.664V26.2403C238.167 26.0592 236.981 25.6172 236.12 24.9L236.923 23.0962C237.133 23.2918 237.422 23.4946 237.805 23.7047C238.182 23.9148 238.616 24.0959 239.107 24.2408C239.599 24.3857 240.091 24.4581 240.598 24.4581C241.212 24.4581 241.733 24.3205 242.16 24.0379C242.587 23.7627 242.804 23.3207 242.804 22.7194C242.804 22.3862 242.681 22.1037 242.428 21.8718C242.182 21.64 241.878 21.4516 241.523 21.3068C241.169 21.1619 240.706 21.0097 240.135 20.8431C239.361 20.6185 238.695 20.3505 238.131 20.039C237.567 19.7274 237.104 19.3073 236.749 18.7712C236.395 18.2423 236.214 17.5758 236.214 16.7789C236.214 16.1849 236.352 15.6415 236.619 15.1417C236.887 14.6418 237.285 14.2289 237.798 13.8884C238.312 13.5479 238.934 13.3088 239.664 13.1856V11.0195H242.312V13.1929C242.941 13.3088 243.491 13.4972 243.968 13.7362C244.438 13.9825 244.771 14.2289 244.966 14.4752L244.077 16.1921C243.99 16.0762 243.795 15.9168 243.498 15.7285C243.202 15.5401 242.847 15.3735 242.442 15.2286C242.037 15.0837 241.632 15.0113 241.22 15.0113C240.59 15.0113 240.062 15.1489 239.636 15.4242C239.209 15.6995 238.992 16.0979 238.992 16.6195C238.992 17.1774 239.23 17.6048 239.715 17.8946C240.2 18.1916 240.8 18.4162 241.531 18.5828C242.768 18.8726 243.78 19.3507 244.554 20.01C245.328 20.6692 245.719 21.4951 245.719 22.4876C245.719 23.4511 245.422 24.2553 244.815 24.9073Z" fill="white"/>
<path d="M174.369 174.305H168.011C166.174 174.305 164.677 172.812 164.677 170.965V164.836H177.697V170.965C177.697 172.812 176.207 174.305 174.369 174.305Z" fill="#D86A7D"/>
<path d="M189.689 143.826C189.689 148.702 187.801 153.136 184.727 156.446C183.953 157.28 183.107 158.033 182.196 158.714C182.188 163.292 178.478 167.009 173.906 167.009H168.17C163.592 167.009 159.874 163.285 159.874 158.699V158.475C159.078 157.859 158.34 157.185 157.653 156.446C154.579 153.143 152.691 148.702 152.691 143.826C152.691 133.59 160.973 125.295 171.194 125.295C181.407 125.295 189.689 133.59 189.689 143.826Z" fill="#8CD3E8"/>
<path d="M184.727 156.447C183.953 157.28 183.107 158.033 182.195 158.714C182.188 163.293 178.478 167.009 173.906 167.009H168.17C163.591 167.009 159.873 163.286 159.873 158.7V158.475C159.078 157.859 158.34 157.186 157.653 156.447C159.302 150.514 164.741 146.152 171.194 146.152C177.646 146.152 183.078 150.514 184.727 156.447Z" fill="#71BBCC"/>
<path d="M178.629 143.298H177.602C177.602 146.666 174.998 149.426 171.707 149.694V143.298C171.707 143.015 171.476 142.783 171.194 142.783C170.912 142.783 170.68 143.015 170.68 143.298V149.694C167.382 149.434 164.785 146.666 164.785 143.298H163.758C163.758 147.231 166.825 150.462 170.687 150.723V165.966C170.687 166.248 170.919 166.48 171.201 166.48C171.483 166.48 171.714 166.248 171.714 165.966V150.723C175.57 150.455 178.629 147.231 178.629 143.298Z" fill="white"/>
<path d="M174.275 128.266C174.275 128.266 180.488 129.128 183.96 135.409" stroke="white" stroke-width="3" stroke-miterlimit="10" stroke-linecap="round" stroke-linejoin="round"/>
<path d="M185.277 138.379L185.624 139.234" stroke="white" stroke-width="3" stroke-miterlimit="10" stroke-linecap="round" stroke-linejoin="round"/>
<path d="M399.694 70.7218V63.8322L394.515 62.789C394.334 62.2239 394.11 61.6806 393.864 61.1445L397.162 56.9065L392.67 51.6904L387.73 54.4795C386.92 54.0231 386.059 53.6464 385.162 53.3494L384.019 47.6045H377.141L375.983 53.3422C375.13 53.6247 374.305 53.9797 373.524 54.4071L368.034 51.3064L363.542 56.5225L367.224 61.2532C367.072 61.5864 366.934 61.9342 366.811 62.2819L361.01 63.4555V70.3451L366.529 71.4462C366.71 72.0475 366.927 72.6343 367.173 73.1994L363.318 78.1547L367.81 83.3707L373.531 80.1397C374.052 80.4294 374.602 80.6758 375.159 80.8931L376.461 87.4494H383.339L384.562 81.364C385.321 81.1466 386.059 80.8713 386.761 80.5381L392.439 83.7474L396.931 78.5314L393.495 74.1195C393.893 73.366 394.226 72.5764 394.493 71.7505L399.694 70.7218ZM380.576 74.7497C376.453 74.7497 373.104 71.4028 373.104 67.2661C373.104 63.1368 376.446 59.7825 380.576 59.7825C384.707 59.7825 388.048 63.1295 388.048 67.2661C388.041 71.4028 384.699 74.7497 380.576 74.7497Z" fill="#FF9A8D"/>
<path d="M388.355 75.5391C392.773 71.1143 392.773 63.9404 388.355 59.5156C383.937 55.0908 376.774 55.0908 372.356 59.5156C367.938 63.9404 367.938 71.1143 372.356 75.5391C376.774 79.9639 383.937 79.9639 388.355 75.5391Z" stroke="white" stroke-miterlimit="10" stroke-linecap="round" stroke-linejoin="round"/>
<path d="M283.354 16.5755H280.149V13.3661C280.149 13.1633 279.99 13.0039 279.788 13.0039C279.585 13.0039 279.426 13.1633 279.426 13.3661V16.5755H276.222C276.019 16.5755 275.86 16.7348 275.86 16.9377C275.86 17.1405 276.019 17.2999 276.222 17.2999H279.426V20.5092C279.426 20.7121 279.585 20.8715 279.788 20.8715C279.99 20.8715 280.149 20.7121 280.149 20.5092V17.2999H283.354C283.556 17.2999 283.715 17.1405 283.715 16.9377C283.715 16.7421 283.549 16.5755 283.354 16.5755Z" fill="#FF8968"/>
<path d="M123.309 140.037H120.112V136.828C120.112 136.625 119.953 136.466 119.751 136.466C119.548 136.466 119.389 136.625 119.389 136.828V140.037H116.185C115.982 140.037 115.823 140.197 115.823 140.4C115.823 140.602 115.982 140.762 116.185 140.762H119.389V143.971C119.389 144.174 119.548 144.333 119.751 144.333C119.953 144.333 120.112 144.174 120.112 143.971V140.762H123.317C123.519 140.762 123.678 140.602 123.678 140.4C123.671 140.197 123.512 140.037 123.309 140.037Z" fill="#FF8968"/>
<path d="M384.143 131.474H380.938V128.265C380.938 128.062 380.779 127.902 380.577 127.902C380.374 127.902 380.215 128.062 380.215 128.265V131.474H377.011C376.808 131.474 376.649 131.633 376.649 131.836C376.649 132.039 376.808 132.198 377.011 132.198H380.215V135.408C380.215 135.611 380.374 135.77 380.577 135.77C380.779 135.77 380.938 135.611 380.938 135.408V132.198H384.143C384.345 132.198 384.504 132.039 384.504 131.836C384.504 131.633 384.338 131.474 384.143 131.474Z" fill="#FF8968"/>
<path d="M234.637 72.076C235.964 72.076 237.039 70.9992 237.039 69.6708C237.039 68.3425 235.964 67.2656 234.637 67.2656C233.311 67.2656 232.236 68.3425 232.236 69.6708C232.236 70.9992 233.311 72.076 234.637 72.076Z" fill="#FF9A8D"/>
<path d="M199.201 185.12C200.528 185.12 201.603 184.043 201.603 182.715C201.603 181.386 200.528 180.31 199.201 180.31C197.875 180.31 196.8 181.386 196.8 182.715C196.8 184.043 197.875 185.12 199.201 185.12Z" fill="#FF9A8D"/>
<path d="M157.082 16.4236H200.019C200.019 16.4236 197.227 9.1284 190.254 6.17988C183.281 3.23136 177.856 8.50538 177.856 8.50538C177.856 8.50538 173.046 -0.869041 163.592 0.0655032C154.138 1.00005 151.042 8.24457 151.042 8.24457C151.042 8.24457 140.192 6.17988 139.107 16.4309H157.082V16.4236Z" fill="#FFF1E2"/>
<path d="M366.906 33.3689H402.096C402.096 33.3689 399.81 27.3921 394.096 24.9725C388.381 22.5528 383.933 26.8778 383.933 26.8778C383.933 26.8778 379.991 19.1986 372.244 19.9592C364.497 20.7199 361.958 26.6604 361.958 26.6604C361.958 26.6604 353.068 24.9725 352.179 33.3689H366.906Z" fill="#FFF1E2"/>
<path d="M215.838 197.949L191.599 214.728L181.017 271.22H189.393L202.832 226.42L217.378 222.226L215.838 197.949Z" fill="#D86A7D"/>
<path d="M309.459 197.949L333.697 214.728L344.273 271.22H335.896L322.457 226.42L307.911 222.226L309.459 197.949Z" fill="#D86A7D"/>
<path d="M267.39 222.581H258.818H222.131L226.883 249.697H258.818H267.39H299.325L304.077 222.581H267.39Z" fill="#313280"/>
<path d="M232.706 246.59C231.035 246.59 229.683 245.235 229.683 243.561V232.55C229.683 230.876 231.035 229.521 232.706 229.521C234.377 229.521 235.73 230.876 235.73 232.55V243.561C235.73 245.235 234.377 246.59 232.706 246.59Z" fill="#4343AA"/>
<path d="M245.01 246.59C243.339 246.59 241.986 245.235 241.986 243.561V232.55C241.986 230.876 243.339 229.521 245.01 229.521C246.681 229.521 248.033 230.876 248.033 232.55V243.561C248.033 245.235 246.681 246.59 245.01 246.59Z" fill="#4343AA"/>
<path d="M257.314 246.59C255.643 246.59 254.29 245.235 254.29 243.561V232.55C254.29 230.876 255.643 229.521 257.314 229.521C258.984 229.521 260.337 230.876 260.337 232.55V243.561C260.337 245.235 258.984 246.59 257.314 246.59Z" fill="#4343AA"/>
<path d="M269.618 246.59C267.947 246.59 266.594 245.235 266.594 243.561V232.55C266.594 230.876 267.947 229.521 269.618 229.521C271.289 229.521 272.641 230.876 272.641 232.55V243.561C272.649 245.235 271.289 246.59 269.618 246.59Z" fill="#4343AA"/>
<path d="M281.921 246.59C280.251 246.59 278.898 245.235 278.898 243.561V232.55C278.898 230.876 280.251 229.521 281.921 229.521C283.592 229.521 284.945 230.876 284.945 232.55V243.561C284.952 245.235 283.592 246.59 281.921 246.59Z" fill="#4343AA"/>
<path d="M294.232 246.59C292.562 246.59 291.209 245.235 291.209 243.561V232.55C291.209 230.876 292.562 229.521 294.232 229.521C295.903 229.521 297.256 230.876 297.256 232.55V243.561C297.256 245.235 295.903 246.59 294.232 246.59Z" fill="#4343AA"/>
<path d="M311.824 194.842H212.626C212.626 194.842 212.438 136.842 227.302 92.875V92.8678C228.236 90.1149 229.227 87.4127 230.275 84.7902C233.227 84.2613 236.771 83.7469 240.923 83.3485C245.834 82.8704 251.585 82.5516 258.203 82.5371C259.049 82.5371 259.903 82.5444 260.778 82.5516C265.625 82.6023 270.182 82.7834 274.406 83.0587C278.717 83.334 282.681 83.6962 286.247 84.0947C289.227 84.4352 291.932 84.7974 294.326 85.1524C294.435 85.4204 294.543 85.6957 294.652 85.9855C294.818 86.4129 294.992 86.8693 295.173 87.3402C295.404 87.9633 295.643 88.6008 295.874 89.2383C296.106 89.8831 296.33 90.5206 296.547 91.1291C296.706 91.5855 296.858 92.0274 297.003 92.4404C312.012 136.458 311.824 194.842 311.824 194.842Z" fill="#5454C8"/>
<path d="M303.477 194.842C302.645 210.055 300.743 223.059 299.506 230.34H237.09C234.247 223.4 230.543 211.743 228.554 194.842H266.565C266.92 207.107 266.985 218.937 266.594 229.514H284.952C284.952 229.514 285.22 215.025 284.981 194.842H303.477Z" fill="#9A7BF0"/>
<path d="M284.981 194.841H266.565C265.466 156.496 261.48 113.963 259.281 92.6354C265.343 92.592 271.527 92.5558 277.082 92.5195C282.949 118.281 284.591 163.451 284.981 194.841Z" fill="#7272DB"/>
<path d="M260.533 147.89C274.435 147.89 285.705 136.953 285.705 123.462C285.705 109.97 274.435 99.0332 260.533 99.0332C246.631 99.0332 235.361 109.97 235.361 123.462C235.361 136.953 246.631 147.89 260.533 147.89Z" fill="#4343AA"/>
<path d="M285.712 120.745C285.712 122.983 285.4 125.157 284.815 127.207C284.373 128.757 283.78 130.235 283.042 131.633C279.122 139.138 271.274 144.26 262.225 144.26C249.256 144.26 238.746 133.734 238.746 120.745C238.746 114.507 241.162 108.849 245.118 104.64C246.984 102.641 249.198 100.974 251.672 99.7283C251.672 99.7283 251.672 99.721 251.679 99.721C254.847 98.12 258.435 97.2217 262.225 97.2217C275.194 97.2217 285.712 107.755 285.712 120.745Z" fill="#9A7BF0"/>
<path d="M356.88 271.221H166.319V283.747H356.88V271.221Z" fill="#FFB5B3"/>
<path d="M366.797 283.746H152.279V296.272H366.797V283.746Z" fill="#FF9A8D"/>
<path d="M258.204 82.5371C258.464 84.8988 258.84 88.34 259.281 92.636C251.737 92.6867 244.366 92.7374 238.616 92.7881C239.484 89.1151 240.272 85.9203 240.923 83.3485C245.835 82.8704 251.585 82.5516 258.204 82.5371Z" fill="#D86A7D"/>
<path d="M288.873 92.4547C285.603 92.4692 281.546 92.491 277.083 92.5199C276.272 88.9701 275.383 85.7825 274.406 83.0586C278.717 83.3339 282.681 83.6961 286.247 84.0946C286.782 85.7173 287.708 88.5717 288.873 92.4547Z" fill="#D86A7D"/>
<path d="M237.09 230.34H212.626V194.842H228.554C230.543 211.743 234.247 223.4 237.09 230.34Z" fill="#826ADB"/>
<path d="M240.923 83.3486C240.272 85.9204 239.484 89.1153 238.616 92.7883C231.845 92.839 227.303 92.8752 227.303 92.8752V92.8679C228.236 90.115 229.227 87.4128 230.276 84.7903C231.288 84.6092 232.373 84.4281 233.531 84.2542C233.762 84.218 234.001 84.189 234.232 84.1528C236.258 83.8558 238.485 83.5805 240.923 83.3486Z" fill="#BA5B70"/>
<path d="M227.302 178.491C227.527 184.41 227.961 189.85 228.554 194.842H212.626C212.626 194.842 212.438 136.842 227.302 92.875C227.302 92.875 231.845 92.8388 238.615 92.7881C233.682 113.804 226.254 150.636 227.302 178.491Z" fill="#4343AA"/>
<path d="M311.824 194.842V230.34H299.506C300.743 223.059 302.645 210.055 303.477 194.842H311.824Z" fill="#AB97F7"/>
<path d="M297.003 92.4404C296.931 92.4187 293.784 92.4259 288.873 92.4549C287.708 88.5719 286.782 85.7175 286.247 84.0947C289.227 84.4352 291.932 84.7974 294.327 85.1524C294.435 85.4205 294.544 85.6958 294.652 85.9856C294.819 86.413 294.992 86.8694 295.173 87.3403C295.404 87.9633 295.643 88.6008 295.875 89.2383C296.106 89.8831 296.33 90.5206 296.547 91.1292C296.706 91.5856 296.858 92.0275 297.003 92.4404Z" fill="#ED8EA3"/>
<path d="M311.824 194.842H303.477C304.2 181.722 304.113 166.958 302.117 152.787C298.442 126.765 292.511 104.589 288.873 92.4549C293.784 92.4259 296.93 92.4186 297.003 92.4404C312.012 136.458 311.824 194.842 311.824 194.842Z" fill="#7272DB"/>
<path d="M283.042 131.634C279.122 139.139 271.274 144.261 262.225 144.261C249.256 144.261 238.746 133.735 238.746 120.745C238.746 114.508 241.162 108.85 245.118 104.641C245.719 105.611 246.89 107.437 248.568 109.69C246.124 112.711 244.662 116.551 244.662 120.745C244.662 130.46 252.525 138.335 262.225 138.335C268.192 138.335 273.465 135.357 276.626 130.801C278.695 131.3 280.836 131.59 283.042 131.634Z" fill="#826ADB"/>
<path d="M276.627 130.8C273.466 135.357 268.193 138.334 262.225 138.334C252.525 138.334 244.663 130.459 244.663 120.745C244.663 116.55 246.124 112.71 248.569 109.689C253.726 116.637 263.693 127.699 276.627 130.8Z" fill="#FFD00A"/>
<path d="M279.788 120.745C279.788 124.49 278.623 127.953 276.627 130.8C263.694 127.7 253.726 116.637 248.569 109.69C251.78 105.705 256.706 103.155 262.225 103.155C271.925 103.155 279.788 111.03 279.788 120.745Z" fill="#FFE98A"/>
<path d="M277.083 92.5201C271.527 92.5563 265.343 92.5925 259.281 92.636C258.84 88.34 258.464 84.8988 258.204 82.5371C259.05 82.5371 259.903 82.5444 260.779 82.5516C261.929 82.5661 263.064 82.5806 264.186 82.6096C264.33 82.6096 264.482 82.6168 264.627 82.624C266.298 82.6603 267.925 82.7182 269.517 82.7907C271.195 82.8631 272.822 82.9573 274.406 83.0587C275.383 85.7827 276.272 88.9702 277.083 92.5201Z" fill="#ED8EA3"/>
<path d="M284.952 229.514H266.594C266.984 218.937 266.919 207.107 266.565 194.842H284.981C285.22 215.025 284.952 229.514 284.952 229.514Z" fill="#AB97F7"/>
<path d="M284.815 127.207C285.415 116.26 278.334 105.017 267.18 101.184C261.133 99.1053 255.737 99.1125 251.679 99.721C254.847 98.12 258.435 97.2217 262.225 97.2217C275.195 97.2217 285.712 107.755 285.712 120.745C285.712 122.983 285.401 125.157 284.815 127.207Z" fill="#AB97F7"/>
<path d="M191.599 214.728L198.905 239.533L202.832 226.421L213.241 223.422L212.626 200.174L191.599 214.728Z" fill="#BA5B70"/>
<path d="M311.824 208.918L327.897 219.893L339.723 271.221H335.897L322.457 226.421L311.824 223.356V208.918Z" fill="#BA5B70"/>
<path d="M111.895 292.229H115.779V287.042H106.948C105.928 287.042 105.103 286.216 105.103 285.195C105.103 284.174 105.928 283.348 106.948 283.348H115.772V245.002H109.457C107.635 245.002 106.152 243.524 106.152 241.692C106.152 239.866 107.627 238.381 109.457 238.381H125.703C127.526 238.381 129.009 239.859 129.009 241.692C129.009 243.517 127.534 245.002 125.703 245.002H119.288V283.348H129.298C130.318 283.348 131.143 284.174 131.143 285.195C131.143 286.216 130.318 287.042 129.298 287.042H119.295V292.229H123.121C126.868 292.229 129.913 295.272 129.913 299.032H119.295H115.779H105.103C105.103 295.279 108.141 292.229 111.895 292.229Z" fill="#9A7BF0"/>
<path d="M119.859 286.766L119.128 288.925C119.128 288.925 118.535 289.845 116.835 289.708C115.136 289.57 114.774 288.976 114.774 288.976L115.143 286.216L119.859 286.766Z" fill="#FFB696"/>
<path d="M135.107 282.217L133.349 285.1C133.349 285.1 131.707 284.984 130.622 284.455C129.537 283.934 129.226 283.209 129.226 283.209L130.637 280.471L135.107 282.217Z" fill="#FFB696"/>
<path d="M133.617 284.76C133.617 284.76 135.056 288.6 136.184 290.099C137.313 291.599 137.725 291.961 137.609 292.649C137.494 293.338 134.774 293.461 132.684 291.961C130.6 290.462 130.347 289.708 129.407 288.556C128.467 287.404 127.497 286.629 127.208 285.869C126.911 285.108 129.725 282.225 129.725 282.225C129.725 282.225 130.159 284.369 133.617 284.76Z" fill="#313280"/>
<path d="M119.129 288.926C119.129 288.926 119.447 292.143 120.228 294.483C121.009 296.823 121.74 297.974 121.378 298.989C121.009 300.003 119.635 300.459 117.32 299.815C115.006 299.17 114.543 297.424 114.13 295.265C113.718 293.106 113.675 292.787 113.718 292.418C113.761 292.048 114.774 288.194 114.774 288.194C114.774 288.194 116.604 289.752 119.129 288.926Z" fill="#313280"/>
<path d="M144.525 260.027L136.119 283.651C136.119 283.651 134.543 283.811 132.474 282.76C131.664 282.362 130.774 281.761 129.877 280.898C129.877 280.898 132.741 261.432 135.534 257.933L124.749 242.93C126.203 248.82 127.693 256.144 127.432 260.679L121.067 286.535C119.823 287.904 117.985 287.882 116.474 287.527C115.005 287.187 113.855 286.535 113.855 286.535C113.855 286.535 117.674 260.875 117.689 260.846C116.474 257.39 112.206 244.929 111.664 239.366C111.931 235.685 112.814 228.941 112.814 228.941L115.895 228.926L131.837 228.832L132.163 232.773L132.199 232.744C132.199 232.744 140.242 243.843 144.199 252.782C145.212 255.072 145.335 257.658 144.525 260.027Z" fill="#313280"/>
<path d="M133.248 196.333C133.248 196.333 135.121 197.246 135.425 199.789L141.812 218.175L135.83 221.631C135.83 221.631 132.38 215.133 131.874 210.358C131.375 205.577 133.248 196.333 133.248 196.333Z" fill="#D86A7D"/>
<path d="M126.051 194.102L133.248 196.333C133.248 196.333 134.159 200.702 134.159 204.918C134.159 209.135 132.691 217.357 132.691 217.357L131.794 229.441L112.814 228.934C112.814 228.934 110.955 202.194 111.967 196L120.582 192.827L126.051 194.102Z" fill="#FF8B9B"/>
<path d="M120.539 193.189L121.197 187.894C120.647 185.09 119.888 179.823 121.588 178.338C123.946 176.281 132.843 176.078 132.691 183.337C132.691 183.337 131.678 189.328 130.051 191.972C129.4 193.037 127.895 192.871 126.34 192.298L125.465 196.015L120.539 193.189Z" fill="#FFB696"/>
<path d="M132.467 182.33C132.467 182.33 127.374 183.018 125.58 181.265C125.58 181.265 125.848 183.242 125.045 184.467C124.249 185.684 123.259 185.568 123.259 185.568C123.259 185.568 123.259 183.626 122.419 183.663C121.58 183.699 121.407 185.764 121.819 186.959C122.231 188.154 122.803 188.154 122.803 188.154L121.052 189.031C121.052 189.031 119.721 183.127 119.721 181.265C119.721 179.396 120.749 178.671 120.749 178.671C120.749 178.671 121.356 176.693 123.902 176.425C126.448 176.157 129.457 177.222 131.967 178.555C134.477 179.888 134.781 181.185 134.593 181.453C134.405 181.721 133.834 181.721 133.834 181.721C133.834 181.721 134.253 184.264 132.445 184.612C132.445 184.612 132.691 183.018 132.467 182.33Z" fill="#313280"/>
<path d="M116.474 287.527C115.005 287.186 113.855 286.534 113.855 286.534C113.855 286.534 117.674 260.874 117.689 260.845C116.474 257.39 112.206 244.929 111.664 239.365C111.931 235.685 112.814 228.94 112.814 228.94C112.814 228.94 115.924 228.991 115.938 229.02C115.938 229.02 114.152 234.301 115.078 240.59C116.011 246.878 120.503 261.157 120.741 262.475C120.966 263.75 115.164 280.558 116.474 287.527Z" fill="#26295E"/>
<path d="M126.34 192.291C126.34 192.291 123.526 191.284 122.991 189.031C122.991 189.031 122.984 192.922 125.971 193.834L126.34 192.291Z" fill="#D88C71"/>
<path d="M120.799 191.074L125.465 196.008L122.521 197.819L119.461 193.248L120.799 191.074Z" fill="#FFEFCA"/>
<path d="M126.029 193.61L125.465 196.008L127.772 196.899L127.548 193.95L126.304 192.581L126.029 193.61Z" fill="#FFEFCA"/>
<path d="M111.967 196.008C111.967 196.008 114.029 197.457 114.948 201.521C115.859 205.585 116.061 220.719 116.061 220.719L110.282 221.632C110.282 221.632 107.75 209.345 108.561 203.042C109.371 196.74 111.967 196.008 111.967 196.008Z" fill="#D86A7D"/>
<path d="M158.68 226.196C158.644 225.964 158.412 225.479 158.203 224.935C157.993 224.392 157.298 223.972 156.604 223.559C155.91 223.146 152.134 223.356 152.134 223.356L152.047 223.443L141.826 218.176C138.781 217.973 135.844 221.632 135.844 221.632C137.306 223.182 146.137 225.182 149.581 225.913L151.497 227.536L155.085 228.673C155.085 228.673 155.295 228 155.085 227.688C154.875 227.377 153.226 226.797 152.944 226.384C152.662 225.978 152.713 225.638 154.289 225.616C155.866 225.594 155.946 226.275 156.38 226.587C156.821 226.899 157.074 227.934 157.855 228.065C158.629 228.195 158.629 228.195 158.629 228.195L158.449 227.007C158.434 227.007 158.716 226.428 158.68 226.196Z" fill="#FFB696"/>
<path d="M116.061 220.711L128.315 227.398L125.472 230.665C125.472 230.665 114.383 227.412 112.235 225.688C110.087 223.964 110.289 221.624 110.289 221.624C110.289 221.624 113.32 220.204 116.061 220.711Z" fill="#FFB696"/>
<path d="M112.198 233.606H185.906V230.665H112.198V233.606Z" fill="#FF8B9B"/>
<path d="M183.375 198.818L177.993 222.305C177.827 223.037 177.176 223.558 176.431 223.558H139.266C138.246 223.558 137.479 222.616 137.696 221.609L142.695 198.123C142.796 197.637 143.114 197.239 143.534 197.036C143.534 197.029 143.534 197.029 143.534 197.029C143.758 196.913 144.011 196.848 144.271 196.848H181.805C182.839 196.848 183.606 197.811 183.375 198.818Z" fill="#9A7BF0"/>
<path d="M175.288 223.558H139.266C138.246 223.558 137.479 222.617 137.696 221.61L142.695 198.123C142.796 197.637 143.114 197.239 143.534 197.036C143.707 197.333 154.015 215.64 175.288 223.558Z" fill="#836CD8"/>
<path d="M165.841 212.286L169.393 230.665H151.165L151.772 229.195H159.114L156.669 212.286H165.841Z" fill="#5454C9"/>
<path d="M127.447 227.543L134.167 227.007L137.031 229.137L137.414 230.658H125.465C125.465 230.665 126.116 228.34 127.447 227.543Z" fill="#FFB696"/>
<path d="M179.36 233.606L171.469 299.032H147.613L156.423 233.606H179.36Z" fill="#D86A7D"/>
<path d="M178.644 239.532L154.253 249.697L156.423 233.606H179.36L178.644 239.532Z" fill="#BA5B70"/>
<path d="M138.564 257.202C138.564 257.202 135.389 266.511 133.913 273.806C132.937 278.638 132.597 281.42 132.474 282.76C131.664 282.362 130.774 281.761 129.877 280.899C129.877 280.899 132.742 261.432 135.534 257.933L124.749 242.93L124.228 239.271L138.564 257.202Z" fill="#26295E"/>
<path d="M258.435 64.7012C258.435 64.7012 286.247 80.5884 322.059 86.4855C322.059 86.4855 292.192 65.8965 258.435 64.7012Z" fill="#4343AA"/>
<path d="M324.619 135.922L324.583 139.53C324.583 139.53 319.621 142.015 318.189 142.638C316.757 143.261 316.446 144.231 317.451 144.579C318.456 144.927 330.977 145.028 331.165 144.579C331.672 143.413 329.849 139.573 329.849 139.573L329.538 135.922H324.619Z" fill="#313280"/>
<path d="M352.185 134.922L354.095 138.03C354.095 138.03 351.766 141.443 350.63 142.167C349.957 142.602 348.2 142.841 347.737 143.565C347.274 144.29 347.737 144.84 350.681 144.876C353.625 144.913 354.399 144.862 356.106 143.674C357.813 142.486 361.068 139.537 361.017 138.704C360.967 137.878 358.637 135.922 358.637 135.922L357.654 133.684L352.185 134.922Z" fill="#313280"/>
<path d="M337.56 82.8698C337.56 82.8698 337.097 97.9312 340.193 108.798C343.296 119.665 351.665 136.899 351.665 136.899L360.345 134.415C360.345 134.415 354.146 111.906 349.958 106.009C349.958 106.009 348.41 80.8631 346.703 77.4437C345.003 74.017 337.56 82.8698 337.56 82.8698Z" fill="#DD7385"/>
<path d="M315.99 24.2547C319.433 20.9223 326.261 21.8496 327.317 25.8196C328.2 29.1448 328.004 32.7163 326.941 35.2882L328.663 39.7725L324.106 43.4745L322.254 40.0768C321.285 40.526 320.294 40.7868 319.397 40.8302C317.097 40.9461 315.469 37.773 314.522 32.2382C313.574 26.6961 315.99 24.2547 315.99 24.2547Z" fill="#FF9F7F"/>
<path d="M321.473 82.7758C315.744 79.9794 307.983 76.5238 298.536 73.0681C295.903 72.1046 293.14 71.1411 290.254 70.192C277.458 65.9975 267.44 64.0414 260.496 63.1431C262.709 60.4409 264.981 57.8691 267.31 55.4712C277.965 44.474 289.777 37.0266 302.42 36.3818C303.136 36.9397 303.831 37.5265 304.504 38.135C305.646 39.1782 306.724 40.2939 307.722 41.4747C316.272 51.4505 320.258 66.2655 321.473 82.7758Z" fill="#D86A7D"/>
<path d="M298.861 73.5757C308.214 64.165 306.03 45.5321 304.829 38.6426C315.614 48.4662 320.438 64.8171 321.798 83.2834C316.069 80.487 308.308 77.0313 298.861 73.5757Z" fill="#BA5B70"/>
<path d="M337.386 44.3798C337.386 44.3798 344.807 53.1167 345.943 68.0839L330.796 73.8433C330.796 73.8433 321.241 58.1444 320.2 52.5589C319.158 46.9734 322.305 41.1488 322.305 41.1488L327.932 37.4033C327.932 37.3961 335.093 40.5982 337.386 44.3798Z" fill="#9A7BF0"/>
<path d="M331.556 44.3944C333.314 45.8288 333.574 48.4224 332.128 50.1683C329.133 53.7833 324.193 59.5789 320.786 62.6579C315.599 67.3523 297.48 61.8465 297.48 61.8465L298.341 57.0868L316.901 56.9926L325.712 45.1261C327.093 43.2643 329.755 42.931 331.556 44.3944Z" fill="#5454C8"/>
<path d="M314.16 27.7319C314.16 27.7319 313.567 24.8559 315.983 22.8129C318.399 20.7772 321.769 20.9511 323.382 21.5813C324.996 22.2116 325.343 22.4941 325.343 22.4941C325.343 22.4941 325.133 21.2988 326.392 20.4222C327.65 19.5456 330.283 21.2988 330.493 23.4432C330.703 25.5876 328.656 25.6238 328.656 25.6238C328.656 25.6238 329.061 27.5218 328.656 30.3979C328.25 33.274 326.934 35.288 326.934 35.288C326.934 35.288 325.299 34.4041 324.598 33.2088C324.598 33.2088 326.247 30.8905 325.683 29.3112C325.118 27.7319 323.368 28.3622 323.158 29.8763C322.948 31.3832 322.948 31.3832 322.948 31.3832L321.929 31.1369C321.929 31.1369 321.184 29.1736 321.466 26.9205C321.48 26.9278 314.652 28.9635 314.16 27.7319Z" fill="#313280"/>
<path d="M316.793 41.0764C318.652 41.9892 321.263 41.5691 322.305 39.9173C323.346 38.2656 322.999 32.4047 322.999 32.4047L321.914 31.9121L320.793 34.8606C320.793 34.8606 316.251 34.1217 315.05 34.7882C315.043 34.7882 314.934 40.1636 316.793 41.0764Z" fill="#313280"/>
<path d="M327.831 36.3311L322.305 41.1487L323.303 44.0537L329.697 38.2726L327.831 36.3311Z" fill="#5454C8"/>
<path d="M298.341 57.0864L296.8 56.8908C296.8 56.8908 293.596 55.652 292.59 55.3912C291.585 55.1304 291.295 55.7172 291.476 56.2388C291.476 56.2388 290.934 56.8111 291.245 57.5862C291.245 57.5862 290.731 58.1223 291.151 58.8033C291.151 58.8033 290.97 59.4988 291.353 59.9262C291.744 60.3537 292.474 60.6434 292.887 60.7014C293.292 60.7593 293.523 60.7014 293.523 60.7014C293.523 60.7014 294.377 61.2085 295.151 61.2085C295.925 61.2085 296.511 60.9332 296.511 60.9332L297.596 61.2085L298.341 57.0864Z" fill="#FF9F7F"/>
<path d="M345.943 68.0771L346.702 70.4461L331.824 76.191L330.796 73.8365L345.943 68.0771Z" fill="#5454C8"/>
<path d="M346.703 70.4453L331.824 76.1902L319.925 101.568C318.948 103.647 318.587 105.965 318.876 108.24L322.522 136.885H330.797C330.797 136.885 331.824 130.213 331.513 120.121C331.325 114.057 330.081 109.348 329.111 106.552C330.066 105.342 344.453 87.0353 346.703 81.783C349.032 76.3496 346.703 70.4453 346.703 70.4453Z" fill="#FF8B9B"/>
<path d="M420.634 300.111H425.596L356.258 147.237H364.316V144.26H302.109V147.237H311.824L326.29 179.671V179.823H326.363L334.457 197.971V198.333H334.623L342.623 216.27V216.843H342.876L350.782 234.57V235.352H351.13L358.949 252.87V253.862H359.39L367.115 271.169V272.372H367.65L375.282 289.469V290.882H375.911L380.019 300.089H384.981L380.801 290.882H416.519L420.634 300.111ZM365.647 176.853H329.082L322.037 161.313H358.717L365.647 176.853ZM352.439 147.237L357.394 158.336H320.692L315.657 147.237H352.439ZM366.97 179.823L373.9 195.363H337.473L330.428 179.823H366.97ZM375.231 198.34L382.16 213.88H345.871L338.826 198.34H375.231ZM383.491 216.85L390.421 232.389H354.269L347.224 216.85H383.491ZM391.752 235.36L398.681 250.899H362.667L355.621 235.36H391.752ZM400.012 253.877L406.942 269.416H371.065L364.019 253.877H400.012ZM379.455 287.926L372.41 272.386H408.265L415.195 287.926H379.455Z" fill="#D86A7D"/>
<path d="M322.059 82.5365V86.4847C322.059 86.4847 306.717 77.2407 290.984 72.1333C275.245 67.0332 258.435 64.7004 258.435 64.7004L259.809 62.7372L260.496 61.7592C260.496 61.7592 273.386 61.2593 292.605 68.0764C311.824 74.8935 322.059 82.5365 322.059 82.5365Z" fill="#9A7BF0"/>
<path d="M307.722 41.4747C304.8 39.7505 300.626 38.5552 295.165 39.9534C286.702 42.1267 274.037 50.6463 267.31 55.4712C277.964 44.474 289.776 37.0266 302.42 36.3818C303.136 36.9397 303.831 37.5265 304.503 38.135C305.646 39.1782 306.724 40.2939 307.722 41.4747Z" fill="#ED8EA3"/>
<path d="M322.059 82.5366V86.4849C322.059 86.4849 306.717 77.2408 290.984 72.1335C275.245 67.0333 258.435 64.7006 258.435 64.7006L259.809 62.7373C262.652 62.7373 269.907 63.2227 281.639 67.1347C297.154 72.3073 318.854 82.312 322.059 82.5366Z" fill="#826ADB"/>
<path d="M328.858 176.933H298.674V238.192H328.858V176.933Z" fill="#8CD3E8"/>
<path d="M302.109 181.186H325.755" stroke="#5454C8" stroke-width="0.5" stroke-miterlimit="10"/>
<path d="M328.858 238.192H298.674V176.933C298.674 176.933 307.448 222.957 328.858 238.192Z" fill="#71BBCC"/>
<path d="M302.421 183.562H325.756" stroke="#5454C8" stroke-width="0.5" stroke-miterlimit="10"/>
<path d="M302.109 227.405H325.755" stroke="#5454C8" stroke-width="0.5" stroke-miterlimit="10"/>
<path d="M302.421 229.781H325.756" stroke="#5454C8" stroke-width="0.5" stroke-miterlimit="10"/>
<path d="M302.109 232.39H325.755" stroke="#5454C8" stroke-width="0.5" stroke-miterlimit="10"/>
<path d="M302.421 234.766H325.756" stroke="#5454C8" stroke-width="0.5" stroke-miterlimit="10"/>
<path d="M318.775 197.254C318.052 191.357 312.265 187.524 312.265 187.524C312.265 187.524 306.479 191.357 305.755 197.254C305.032 203.151 309.01 217.857 309.01 217.857H312.265H315.52C315.52 217.864 319.499 203.158 318.775 197.254Z" stroke="white" stroke-width="0.5" stroke-miterlimit="10" stroke-linecap="round" stroke-linejoin="round" stroke-dasharray="1 1"/>
<path d="M307.281 210.598C307.281 210.598 303.99 212.959 303.137 213.814C302.283 214.669 302.283 219.248 302.283 219.248L304.569 215.676L308.352 215.299" stroke="white" stroke-width="0.5" stroke-miterlimit="10" stroke-linecap="round" stroke-linejoin="round" stroke-dasharray="1 1"/>
<path d="M317.263 210.598C317.263 210.598 320.554 212.959 321.408 213.814C322.262 214.669 322.262 219.248 322.262 219.248L319.976 215.676L316.186 215.299" stroke="white" stroke-width="0.5" stroke-miterlimit="10" stroke-linecap="round" stroke-linejoin="round" stroke-dasharray="1 1"/>
<path d="M316.193 200.462C316.193 202.542 314.508 204.23 312.432 204.23C310.356 204.23 308.67 202.542 308.67 200.462C308.67 198.383 310.356 196.695 312.432 196.695C314.508 196.695 316.193 198.383 316.193 200.462Z" fill="#FFE98A"/>
<path d="M325.755 186.72H318.001V189.168H325.755V186.72Z" fill="#FFE98A"/>
<path d="M324.33 191.805C324.33 192.638 323.65 193.319 322.818 193.319C321.987 193.319 321.307 192.638 321.307 191.805C321.307 190.972 321.987 190.291 322.818 190.291C323.65 190.291 324.33 190.972 324.33 191.805Z" fill="white"/>
<path d="M343.781 215.676C343.781 215.676 345.43 217.031 344.887 224.253C344.345 231.476 342.023 232.012 339.231 231.549L343.781 215.676Z" fill="#FFB696"/>
<path d="M336.815 208.425L335.875 213.677L330.334 214.902L330.594 211.098C329.314 211.163 328.142 211.011 327.535 210.381C327.354 210.193 327.223 209.961 327.151 209.686C326.384 206.679 327.195 200.652 327.195 200.652C329.205 193.675 336.374 196.254 338.016 198.92C339.202 200.847 338.175 205.911 336.815 208.425Z" fill="#FFB696"/>
<path d="M330.594 211.098C329.314 211.163 328.142 211.011 327.535 210.381C328.244 210.316 330.182 210.048 331.093 208.918C331.911 207.903 330.594 211.098 330.594 211.098Z" fill="#D88E75"/>
<path d="M340.251 207.222C340.164 207.403 340.07 207.584 339.969 207.758C338.146 210.982 335.202 211.018 332.837 210.127C330.471 209.236 330.782 207.794 330.782 207.794C330.782 207.794 331.441 208.149 332.099 207.179C332.49 206.599 332.678 205.549 332.562 204.766C332.482 204.237 332.258 203.832 331.867 203.803C331.766 203.795 331.665 203.803 331.578 203.832C330.84 204.006 330.587 205.078 330.587 205.078C330.088 204.303 330.356 203.564 330.356 203.564C328.265 202.948 328.15 201.666 328.15 201.666L327.954 202.593C326.869 202.361 325.517 200.731 326.211 198.717C326.826 196.928 328.229 196.312 328.547 196.196C328.591 196.174 328.612 196.167 328.612 196.167C330.008 195.247 334.739 193.943 337.603 195.457C340.468 196.971 340.2 199.376 340.2 199.376C341.705 200.919 341.784 204.15 340.251 207.222Z" fill="#313280"/>
<path d="M344.193 199.956C344.178 200.014 344.171 200.072 344.157 200.122C343.781 201.716 342.551 202.274 341.321 202.028C341.314 202.028 341.314 202.028 341.307 202.02C340.916 201.948 340.526 201.781 340.164 201.549C339.846 201.339 339.571 201.086 339.339 200.818C338.963 200.369 338.703 199.869 338.529 199.449C338.493 199.376 338.471 199.304 338.45 199.238C338.283 198.797 338.225 198.485 338.225 198.485C338.225 198.485 338.196 198.246 338.204 197.884C338.196 197.855 338.196 197.826 338.204 197.797C338.204 197.732 338.204 197.666 338.211 197.594C338.211 197.594 338.211 197.594 338.211 197.587C338.283 196.616 338.681 195.174 340.352 194.95C342.913 194.602 344.62 197.703 344.193 199.956Z" fill="#313280"/>
<path d="M341.234 238.127L341.242 238.671C341.242 238.671 338.023 239.888 333.574 239.649C331.831 239.554 330.146 239.323 328.742 239.083C326.558 238.7 325.046 238.287 325.046 238.287L326.081 232.817L325.647 228.919C324.591 228.086 323.166 226.753 322.876 225.413C322.58 224.022 323.556 219.791 324.294 216.923L324.012 214.423C324.337 214.322 324.685 214.22 325.053 214.126C325.119 214.112 325.191 214.09 325.256 214.075C329.35 213.032 335.658 212.322 335.658 212.322C339.151 212.706 343.781 215.676 343.781 215.676C343.535 218.096 341.075 228.688 341.075 228.688L341.162 233.838L341.234 238.127Z" fill="#9A7BF0"/>
<path d="M341.234 238.127L328.742 239.083C326.558 238.699 325.046 238.286 325.046 238.286L326.081 232.817L325.647 228.919C324.591 228.086 323.166 226.753 322.876 225.413C322.58 224.022 323.556 219.791 324.294 216.922L324.012 214.423C324.337 214.322 324.685 214.22 325.053 214.126C325.119 214.111 325.191 214.09 325.256 214.075C325.639 217.437 327.296 229.071 330.616 231.672C333.625 234.034 338.985 233.976 341.162 233.838L341.234 238.127Z" fill="#7961D1"/>
<path d="M324.012 214.423L313.263 221.769L303.137 212.453L303.151 212.438C303.151 212.438 302.587 210.301 302.413 209.838C302.24 209.374 301.249 208.15 300.96 208.092C300.67 208.034 300.75 208.425 300.844 208.671C300.938 208.925 301.271 209.954 301.271 209.954L299.274 208.947C299.274 208.947 298.79 207.606 298.464 207.57C298.131 207.534 298.233 208.831 298.558 209.374C298.558 209.374 298.11 209.707 298.254 210.265C298.254 210.265 297.878 210.635 298.11 211.2C298.11 211.2 297.589 211.721 298.536 212.772C299.484 213.822 300.8 214.735 300.8 214.735C301.965 216.423 308.764 226.08 312.793 227.21C317.213 228.449 323.564 223.508 323.564 223.508C323.564 223.508 328.171 219.806 324.012 214.423Z" fill="#FFB696"/>
<path d="M336.207 307.797C335.636 307.899 324.222 308.058 324.012 307.486C323.81 306.914 323.6 306.399 326.081 305.624C326.594 305.465 327.144 305.189 327.694 304.871C329.148 304.001 330.587 302.741 331.318 302.06L329.083 290.302L328.562 287.563H335.376C335.527 288.129 335.636 289.338 335.716 290.845C335.918 294.794 335.904 300.763 335.896 302.364C335.896 302.364 335.998 302.98 336.106 303.798C336.323 305.385 336.584 307.732 336.207 307.797Z" fill="#FFB696"/>
<path d="M353.459 307.486C352.974 307.798 345.328 307.573 343.209 307.508C342.884 307.494 342.688 307.124 342.884 306.863C343.252 306.364 344.048 305.842 345.09 305.262C345.343 305.125 345.596 304.922 345.842 304.676C346.703 303.835 347.506 302.509 347.911 301.792L345.242 290.31H345.234L344.497 287.122L350.855 287.897C351.072 288.484 351.26 289.556 351.433 290.86C351.911 294.49 352.207 299.901 352.301 301.582L352.323 301.589C352.323 301.589 352.547 302.314 352.8 303.248C353.256 304.907 353.82 307.255 353.459 307.486Z" fill="#FFB696"/>
<path d="M335.716 290.845C332.258 291.034 329.083 290.302 329.083 290.302L328.562 287.563H335.376C335.528 288.129 335.636 289.338 335.716 290.845Z" fill="#D88E75"/>
<path d="M351.433 290.86C348.352 290.969 345.582 290.382 345.242 290.31H345.234L344.497 287.122L350.855 287.897C351.072 288.484 351.26 289.556 351.433 290.86Z" fill="#D88E75"/>
<path d="M352.678 287.353C351.043 288.078 349.343 288.389 347.846 288.505C345.227 288.694 343.224 288.259 343.224 288.259L335.282 253.978L336.996 287.563C335.477 288.527 333.343 288.766 331.462 288.737C331.441 288.744 331.426 288.744 331.404 288.737C330.204 288.723 329.104 288.599 328.338 288.484C327.643 288.382 327.216 288.288 327.216 288.288C327.216 288.288 320.554 260.498 321.639 250.718C322.724 240.938 325.046 238.286 325.046 238.286C328.453 237.381 331.47 236.932 333.943 236.736C338.493 236.359 341.213 236.83 341.213 236.83C346.45 242.575 346.283 251.029 346.283 251.029L352.678 287.353Z" fill="#313280"/>
<path d="M336.207 307.798C335.636 307.9 324.222 308.059 324.012 307.487C323.81 306.914 323.6 306.4 326.081 305.625C326.594 305.465 327.144 305.19 327.694 304.871C327.687 305.06 327.788 305.27 328.251 305.284C329.104 305.313 330.732 304.85 333.155 303.806C335.484 302.814 336.063 303.727 336.106 303.799C336.323 305.386 336.584 307.733 336.207 307.798Z" fill="#313280"/>
<path d="M353.459 307.486C352.974 307.798 345.328 307.573 343.209 307.508C342.884 307.493 342.688 307.124 342.884 306.863C343.252 306.363 344.048 305.842 345.09 305.262C345.343 305.124 345.596 304.922 345.842 304.675C346.03 304.755 346.363 304.798 346.927 304.69C348.316 304.436 348.815 302.676 350.927 302.676C351.983 302.676 352.518 302.958 352.8 303.248C353.256 304.907 353.82 307.254 353.459 307.486Z" fill="#313280"/>
<path d="M347.846 288.505C345.228 288.694 343.224 288.259 343.224 288.259L335.282 253.978L340.967 249.696C340.967 249.696 340.367 261.186 342.117 270.292C343.564 277.834 346.783 285.941 347.846 288.505Z" fill="#26295E"/>
<path d="M326.095 252.855C324.656 267.424 331.303 288.252 331.462 288.738C331.462 288.745 331.462 288.745 331.462 288.745L331.404 288.738L328.338 288.484C327.643 288.383 327.216 288.288 327.216 288.288C327.216 288.288 320.555 260.498 321.639 250.718C322.724 240.938 325.046 238.287 325.046 238.287C328.453 237.381 331.47 236.932 333.943 236.736C331.665 238.04 327.166 241.96 326.095 252.855Z" fill="#26295E"/>
<path d="M313.364 222.189L312.265 224.928C312.265 224.928 311.39 222.494 313.364 222.189Z" fill="#D88E75"/>
<path d="M331.101 227.405H340.417C340.417 227.405 340.554 228.999 336.518 228.999C332.489 228.999 331.101 227.405 331.101 227.405Z" fill="#7961D1"/>
<path d="M330.587 205.078C330.088 204.303 330.356 203.564 330.356 203.564C328.265 202.948 328.15 201.666 328.15 201.666L327.954 202.593C326.869 202.361 325.517 200.731 326.211 198.717C326.826 196.928 328.229 196.312 328.547 196.196C328.67 197.5 329.198 201.217 331.578 203.832C330.84 204.006 330.587 205.078 330.587 205.078Z" fill="#26295E"/>
<path d="M340.251 207.222C340.164 207.404 340.07 207.585 339.969 207.759C338.146 210.982 335.202 211.019 332.837 210.128C330.471 209.236 330.783 207.795 330.783 207.795C330.783 207.795 331.441 208.15 332.099 207.179C332.49 206.599 332.678 205.549 332.562 204.767C333.256 205.324 334.074 205.788 335.028 206.107C337.43 206.918 339.101 207.194 340.251 207.222Z" fill="#26295E"/>
<path d="M344.157 200.122C343.781 201.716 342.551 202.274 341.321 202.027C341.314 202.027 341.314 202.027 341.307 202.02C340.425 201.767 339.788 201.325 339.339 200.818C338.949 200.383 338.696 199.905 338.529 199.448C338.493 199.376 338.472 199.304 338.45 199.238C338.276 198.688 338.218 198.188 338.204 197.884C338.197 197.855 338.197 197.826 338.204 197.797C338.189 197.645 338.197 197.558 338.197 197.558C338.204 197.565 338.204 197.579 338.211 197.587C338.211 197.594 338.211 197.594 338.211 197.594C339.289 199.992 342.746 200.158 344.157 200.122Z" fill="#26295E"/>
<path d="M157.641 86.8325C185.794 83.9862 213.211 89.9986 238.543 102.421C245.15 105.662 251.316 109.703 257.988 112.786C258.969 113.24 255.396 108.093 254.579 106.834C247.918 96.5772 253.714 108.44 256.508 112.832C261.548 120.756 258.368 117.5 252.729 116.273C249.701 115.614 235.092 115.335 243.369 119.161C247.878 121.245 256.595 123.564 255.997 115.514C255.724 111.829 256.007 106.454 254.92 102.939C253.345 97.8436 254.505 111.274 256.23 113.433" stroke="#363636" stroke-width="3" stroke-linecap="round" stroke-linejoin="round"/>
</g>
<path d="M1.66023 79.92C1.98023 79.92 2.1869 80.0867 2.28023 80.42L2.16023 81.6V81.98C2.49357 84.74 2.70023 86.8867 2.78023 88.42C2.9269 89.8467 3.08023 90.56 3.24023 90.56C3.24023 90.84 3.0069 91.02 2.54023 91.1C1.87357 91.1 1.54023 89.7533 1.54023 87.06L0.980233 81.86V81.68C0.980233 80.5067 1.2069 79.92 1.66023 79.92ZM8.05539 84.26C9.18872 84.3533 9.75539 84.9067 9.75539 85.92L9.79539 86.18L9.75539 89.3C9.75539 89.66 9.96206 90.1467 10.3754 90.76V90.8C10.2687 91.1867 10.0754 91.38 9.79539 91.38C8.96872 91.0333 8.55539 90.3 8.55539 89.18V88.92L8.49539 88.88L8.55539 88.8V88.76L8.61539 86C8.61539 85.6133 8.44872 85.42 8.11539 85.42H7.87539C7.20872 85.6867 6.87539 87.1467 6.87539 89.8C6.87539 90.72 6.64206 91.18 6.17539 91.18C5.81539 91.18 5.62872 90.9533 5.61539 90.5V88.5C5.61539 85.9133 5.84206 84.62 6.29539 84.62L6.49539 84.56L6.91539 84.62C7.27539 84.38 7.65539 84.26 8.05539 84.26ZM16.2223 82.9C16.5823 82.9 16.8289 83.5067 16.9623 84.72C16.8289 85.0533 16.6089 85.22 16.3023 85.22C16.0889 85.18 15.8756 84.9333 15.6623 84.48L15.3023 84.36C14.6756 84.36 14.1089 84.7733 13.6023 85.6V85.78C13.6023 85.98 14.5423 86.3133 16.4223 86.78C17.2089 87.2467 17.6023 87.8133 17.6023 88.48C17.6023 89.5733 16.7223 90.5067 14.9623 91.28L14.2223 91.4C13.1023 91.28 12.5423 90.72 12.5423 89.72V89.66C12.5423 89.34 12.7489 89.1533 13.1623 89.1C13.4823 89.1 13.6956 89.4333 13.8023 90.1L13.9623 90.22H14.3023C15.0623 90.22 15.7689 89.7 16.4223 88.66V88.4C16.4223 88 15.5489 87.6267 13.8023 87.28C12.8823 86.9067 12.4223 86.3867 12.4223 85.72C12.4223 84.8533 13.1489 84.04 14.6023 83.28C15.2423 83.2 15.7823 83.0733 16.2223 82.9ZM21.3351 83.82C21.8684 83.8333 22.7684 84.7667 24.0351 86.62L24.0751 86.96C24.0751 87.3333 23.1617 87.62 21.3351 87.82L21.2751 87.88V87.96C21.5551 89.16 21.8484 89.76 22.1551 89.76H22.3951C22.8217 89.76 23.4684 89.3 24.3351 88.38H24.4551C24.7217 88.38 24.9284 88.5733 25.0751 88.96C25.0751 89.28 24.5151 89.8333 23.3951 90.62C23.1017 90.7933 22.7484 90.92 22.3351 91C21.2551 91 20.5017 89.9867 20.0751 87.96C19.4617 87.8667 19.1551 87.6133 19.1551 87.2C19.1551 86.9067 19.3817 86.7133 19.8351 86.62V86.7L20.0351 86.62V86.12C20.0351 84.5867 20.4684 83.82 21.3351 83.82ZM21.4551 85.26H21.2751L21.1951 86V86.62H21.2751C22.0217 86.5933 22.3951 86.5133 22.3951 86.38C22.0484 85.86 21.7351 85.4867 21.4551 85.26ZM29.6837 83.12C30.5237 83.12 31.0237 83.7067 31.1837 84.88V85.06C31.1837 86.3533 30.517 87.54 29.1837 88.62C29.957 89.38 31.3103 89.76 33.2437 89.76C33.537 89.8533 33.6837 90.06 33.6837 90.38C33.6837 90.74 33.4503 90.92 32.9837 90.92C31.677 90.92 30.3037 90.5867 28.8637 89.92V90.5C28.8637 91.8733 28.5703 92.56 27.9837 92.56C27.5703 92.56 27.3637 91.7667 27.3637 90.18V88.62L27.3037 88.06L27.4437 87.42L27.3037 85.5V85.42C27.3037 85.06 27.4903 84.8133 27.8637 84.68C28.3837 83.64 28.9903 83.12 29.6837 83.12ZM28.6837 87.5C29.0703 87.5 29.5037 86.8067 29.9837 85.42V84.56L29.7437 84.3H29.5637C28.977 84.7 28.6837 85.7667 28.6837 87.5ZM37.9084 78.86C38.2817 78.94 38.4684 79.1267 38.4684 79.42L38.3484 80.3V80.56C38.3484 81.1467 38.415 81.7667 38.5484 82.42H38.5884C40.135 81.9533 41.095 81.72 41.4684 81.72C41.855 81.8267 42.0484 82.02 42.0484 82.3C42.0484 82.7533 41.5884 82.98 40.6684 82.98L38.5884 83.72C38.5884 85.52 38.7817 87.9667 39.1684 91.06C39.0884 91.42 38.895 91.6 38.5884 91.6H38.5484C38.0817 91.6 37.8484 91 37.8484 89.8C37.675 88.9067 37.5284 86.9667 37.4084 83.98H37.0484C35.795 83.9 35.1684 83.6067 35.1684 83.1C35.1684 82.9533 35.3084 82.7733 35.5884 82.56H35.7884L36.7084 82.8H37.3484L37.1684 80.3C37.1684 79.34 37.415 78.86 37.9084 78.86ZM47.5977 83.28C48.1844 83.28 48.4777 83.5133 48.4777 83.98L48.2977 84.36L48.1777 88.02C48.1777 89.6733 48.5111 90.7 49.1777 91.1L49.2177 91.4C49.1777 91.7867 48.9977 91.98 48.6777 91.98H48.5577C47.5577 91.3 47.0577 90.26 47.0577 88.86H46.9177C46.3844 90.3533 45.7377 91.1 44.9777 91.1C44.2711 90.9 43.9177 90.3733 43.9177 89.52C43.9177 87.64 44.6711 85.7667 46.1777 83.9C46.6844 83.4867 47.1577 83.28 47.5977 83.28ZM45.1777 88.72L45.0977 89.28V89.66H45.2977C46.2977 87.1667 46.7977 85.6467 46.7977 85.1H46.7177C45.9444 85.9667 45.4311 87.1733 45.1777 88.72ZM61.9966 78.86C62.37 78.94 62.5566 79.1267 62.5566 79.42L62.4366 80.3V80.56C62.4366 81.1467 62.5033 81.7667 62.6366 82.42H62.6766C64.2233 81.9533 65.1833 81.72 65.5566 81.72C65.9433 81.8267 66.1366 82.02 66.1366 82.3C66.1366 82.7533 65.6766 82.98 64.7566 82.98L62.6766 83.72C62.6766 85.52 62.87 87.9667 63.2566 91.06C63.1766 91.42 62.9833 91.6 62.6766 91.6H62.6366C62.17 91.6 61.9366 91 61.9366 89.8C61.7633 88.9067 61.6166 86.9667 61.4966 83.98H61.1366C59.8833 83.9 59.2566 83.6067 59.2566 83.1C59.2566 82.9533 59.3966 82.7733 59.6766 82.56H59.8766L60.7966 82.8H61.4366L61.2566 80.3C61.2566 79.34 61.5033 78.86 61.9966 78.86ZM68.746 84.98L69.106 84.78C69.426 84.78 69.6594 84.9733 69.806 85.36C69.5927 86.3467 69.486 87.36 69.486 88.4C69.486 88.92 69.6394 89.4867 69.946 90.1H70.066C70.4527 90.1 70.9127 88.5733 71.446 85.52C71.6327 85.36 71.8127 85.28 71.986 85.28C72.3994 85.28 72.606 86.0133 72.606 87.48C72.7794 89.0933 72.9727 89.9 73.186 89.9L73.486 89.78C73.8727 89.9267 74.066 90.1333 74.066 90.4C73.826 90.9067 73.4927 91.16 73.066 91.16C72.586 91.16 72.126 90.68 71.686 89.72C71.1527 90.84 70.6127 91.4 70.066 91.4C69.2527 91.4 68.686 90.5533 68.366 88.86L68.306 88.22V88.02C68.306 86.9533 68.4527 85.94 68.746 84.98ZM84.668 80.58C85.1747 80.6867 85.428 80.9133 85.428 81.26C85.2947 81.6333 85.0814 81.82 84.788 81.82C84.2947 81.7267 84.048 81.48 84.048 81.08C84.1814 80.7467 84.388 80.58 84.668 80.58ZM85.428 83.38C85.6414 83.38 85.8214 83.5733 85.968 83.96L85.788 85.38V86.32C85.788 87.4133 85.9747 88.8467 86.348 90.62C86.2147 90.8733 85.988 91 85.668 91C85.1214 91 84.7614 89.4 84.588 86.2V85.5C84.588 84.0867 84.868 83.38 85.428 83.38ZM93.2773 80.02C93.5039 80.02 93.7106 80.2333 93.8973 80.66L93.0173 86.22V87.78C93.0173 89.4067 93.2706 90.22 93.7773 90.22C94.1106 90.38 94.2773 90.5933 94.2773 90.86C94.2773 91.1667 94.0106 91.3467 93.4773 91.4C92.8906 91.4 92.4306 90.86 92.0973 89.78H91.8973C91.4039 90.86 90.8039 91.4 90.0973 91.4C89.2706 91.4 88.7706 90.7733 88.5973 89.52C88.5973 88.0667 89.5706 86.5267 91.5173 84.9C91.9039 84.9 92.0973 84.36 92.0973 83.28C92.3906 81.1067 92.7839 80.02 93.2773 80.02ZM89.7773 89.36V89.9L90.0973 90.22H90.2173C90.6439 90.22 91.1439 88.9333 91.7173 86.36H91.5973C90.3839 87.5733 89.7773 88.5733 89.7773 89.36ZM97.9835 83.82C98.5168 83.8333 99.4168 84.7667 100.684 86.62L100.724 86.96C100.724 87.3333 99.8102 87.62 97.9835 87.82L97.9235 87.88V87.96C98.2035 89.16 98.4968 89.76 98.8035 89.76H99.0435C99.4702 89.76 100.117 89.3 100.984 88.38H101.104C101.37 88.38 101.577 88.5733 101.724 88.96C101.724 89.28 101.164 89.8333 100.044 90.62C99.7502 90.7933 99.3968 90.92 98.9835 91C97.9035 91 97.1502 89.9867 96.7235 87.96C96.1102 87.8667 95.8035 87.6133 95.8035 87.2C95.8035 86.9067 96.0302 86.7133 96.4835 86.62V86.7L96.6835 86.62V86.12C96.6835 84.5867 97.1168 83.82 97.9835 83.82ZM98.1035 85.26H97.9235L97.8435 86V86.62H97.9235C98.6702 86.5933 99.0435 86.5133 99.0435 86.38C98.6968 85.86 98.3835 85.4867 98.1035 85.26ZM107.432 83.28C108.019 83.28 108.312 83.5133 108.312 83.98L108.132 84.36L108.012 88.02C108.012 89.6733 108.345 90.7 109.012 91.1L109.052 91.4C109.012 91.7867 108.832 91.98 108.512 91.98H108.392C107.392 91.3 106.892 90.26 106.892 88.86H106.752C106.219 90.3533 105.572 91.1 104.812 91.1C104.105 90.9 103.752 90.3733 103.752 89.52C103.752 87.64 104.505 85.7667 106.012 83.9C106.519 83.4867 106.992 83.28 107.432 83.28ZM105.012 88.72L104.932 89.28V89.66H105.132C106.132 87.1667 106.632 85.6467 106.632 85.1H106.552C105.779 85.9667 105.265 87.1733 105.012 88.72ZM123.211 83.28C123.798 83.28 124.091 83.5133 124.091 83.98L123.911 84.36L123.791 88.02C123.791 89.6733 124.124 90.7 124.791 91.1L124.831 91.4C124.791 91.7867 124.611 91.98 124.291 91.98H124.171C123.171 91.3 122.671 90.26 122.671 88.86H122.531C121.998 90.3533 121.351 91.1 120.591 91.1C119.884 90.9 119.531 90.3733 119.531 89.52C119.531 87.64 120.284 85.7667 121.791 83.9C122.298 83.4867 122.771 83.28 123.211 83.28ZM120.791 88.72L120.711 89.28V89.66H120.911C121.911 87.1667 122.411 85.6467 122.411 85.1H122.331C121.558 85.9667 121.044 87.1733 120.791 88.72ZM130.111 84.08C130.938 84.28 131.351 84.5067 131.351 84.76C131.058 86.3867 130.911 88.0067 130.911 89.62V90.88C130.911 92.92 131.098 94.2133 131.471 94.76C132.058 94.0933 132.351 93.16 132.351 91.96V91.76C132.351 91.1333 132.144 90.7133 131.731 90.5C131.624 90.5 131.538 90.36 131.471 90.08C131.591 89.6933 131.818 89.5 132.151 89.5C133.071 89.7667 133.531 90.64 133.531 92.12C133.344 94.3067 132.704 95.6267 131.611 96.08H131.471C130.311 96.08 129.731 94.2867 129.731 90.7V90.12H129.651C129.064 90.92 128.564 91.32 128.151 91.32C127.404 91.32 126.931 90.7 126.731 89.46C126.731 88.06 127.331 86.5333 128.531 84.88C129.024 84.3467 129.551 84.08 130.111 84.08ZM128.031 88.38L127.911 89.38V89.82L128.151 90.08C128.538 90.08 129.124 88.72 129.911 86L130.031 85.26H129.851C129.264 85.5533 128.658 86.5933 128.031 88.38ZM136.148 84.98L136.508 84.78C136.828 84.78 137.061 84.9733 137.208 85.36C136.994 86.3467 136.888 87.36 136.888 88.4C136.888 88.92 137.041 89.4867 137.348 90.1H137.468C137.854 90.1 138.314 88.5733 138.848 85.52C139.034 85.36 139.214 85.28 139.388 85.28C139.801 85.28 140.008 86.0133 140.008 87.48C140.181 89.0933 140.374 89.9 140.588 89.9L140.888 89.78C141.274 89.9267 141.468 90.1333 141.468 90.4C141.228 90.9067 140.894 91.16 140.468 91.16C139.988 91.16 139.528 90.68 139.088 89.72C138.554 90.84 138.014 91.4 137.468 91.4C136.654 91.4 136.088 90.5533 135.768 88.86L135.708 88.22V88.02C135.708 86.9533 135.854 85.94 136.148 84.98ZM144.091 83.38C144.304 83.38 144.484 83.5733 144.631 83.96L144.451 85.38V86.32C144.451 87.4133 144.637 88.8467 145.011 90.62C144.877 90.8733 144.651 91 144.331 91C143.784 91 143.424 89.4 143.251 86.2V85.5C143.251 84.0867 143.531 83.38 144.091 83.38ZM142.651 81.3C142.651 80.98 142.784 80.7667 143.051 80.66C144.597 79.74 145.544 79.28 145.891 79.28C146.117 79.28 146.264 79.4933 146.331 79.92L146.211 80.42L143.931 81.38C143.851 81.58 143.557 81.78 143.051 81.98C142.824 81.94 142.691 81.7133 142.651 81.3Z" fill="#363636"/>
<defs>
<clipPath id="clip0_913_1">
<rect width="341" height="312" fill="white" transform="translate(94)"/>
</clipPath>
</defs>
</svg>
