<svg width="1em" height="1em" viewBox="0 0 100 104" fill="none" xmlns="http://www.w3.org/2000/svg">
<circle cx="65" cy="28" r="28" fill="#00CA4E" fill-opacity="0.25"/>
<path d="M12.9847 94.2213C12.8838 94.0121 12.7517 93.8493 12.6197 93.7021C11.6876 92.4775 10.4449 91.5862 8.92252 91.1677C7.43123 90.7647 5.36517 90.6872 3.99039 91.439C0.945667 93.0975 0.223323 98.174 1.82335 101.065C3.46222 104.033 7.74192 104.777 10.5614 103.158C13.5362 101.452 14.4372 97.8485 13.2488 94.8181C13.1945 94.6321 13.1168 94.4306 12.9847 94.2213Z" fill="black"/>
<path d="M90.7493 78.3176C91.1143 81.0302 95.4406 81.0689 95.0756 78.3176C94.4231 73.4348 93.7707 68.5521 93.1183 63.6616C92.9552 62.468 92.2561 61.5535 90.959 61.507C77.6694 60.9567 64.4497 61.011 51.2534 61.5768C51.2534 58.1123 51.2534 54.6557 51.2534 51.1912C61.2963 48.9979 64.6905 29.3042 53.2651 27.3046C52.7913 27.2193 52.3718 27.2813 52.0068 27.4363C45.7309 26.0258 40.8221 27.9169 38.9502 34.8457C37.257 41.1003 39.4784 48.4941 46.0494 50.796C46.3445 50.8967 46.6397 50.982 46.9271 51.0595C46.9271 54.6324 46.9271 58.2053 46.9271 61.7783C33.9404 62.4525 20.977 63.6151 7.99038 65.2194C7.42338 65.2892 6.98065 65.5372 6.64666 65.8782C6.02529 66.0487 5.49713 66.5137 5.30295 67.343C3.99807 72.9233 3.81942 78.4571 4.65828 84.1148C5.06217 86.8507 9.23312 85.6882 8.82923 82.9678C8.15349 78.4106 8.3399 73.8688 9.28749 69.3814C21.8858 67.8546 34.4686 66.7385 47.0591 66.0952C47.2145 66.5292 47.5018 66.8625 47.8514 67.0795C47.5795 70.5827 47.9834 74.3339 48.1077 77.7983C48.2086 80.5652 52.5349 80.5807 52.434 77.7983C52.3563 75.6824 52.2942 73.5588 52.2709 71.443C52.2631 70.9625 51.9835 67.7926 52.1466 66.5602C52.6359 66.475 53.0243 66.196 53.3039 65.8085C65.1954 65.3434 77.1024 65.3124 89.0716 65.7542C89.6308 69.9394 90.19 74.1324 90.7493 78.3176ZM43.1212 35.9928C44.4726 30.9628 47.696 30.645 52.1777 31.9316C52.6515 32.0711 53.0786 32.0478 53.4437 31.9161C59.2147 35.0162 54.9428 50.4937 46.7407 46.4093C42.8649 44.4794 42.0881 39.8214 43.1212 35.9928Z" fill="black"/>
<path d="M56.0691 91.493C55.2224 90.2297 53.8632 89.2686 52.3874 89.2144C52.2476 89.1446 52.1078 89.0904 51.968 89.0671C49.1563 88.6176 46.0494 88.7028 44.6358 91.6247C43.3232 94.3374 43.7892 97.9955 46.0417 100.088C48.2087 102.103 51.5719 102.398 53.902 100.491C56.1001 98.6931 57.3506 95.1124 56.4186 92.3688C56.3797 92.082 56.271 91.7875 56.0691 91.493Z" fill="black"/>
<path d="M99.9766 90.7796C100.015 90.4851 99.9921 90.1518 99.8678 89.7953C99.7979 89.431 99.6659 89.1443 99.4873 88.9118C98.6251 87.1989 97.1338 85.9046 95.2309 85.6411C94.8192 85.1296 94.3143 84.7576 93.491 84.6801C91.9298 84.5406 90.291 85.2303 89.1026 86.1836C86.5394 88.2297 85.685 91.7562 87.2229 94.6858C88.6521 97.4062 91.9764 99.212 95.0367 98.499C98.4465 97.724 100.171 94.0425 99.9766 90.7796Z" fill="black"/>
</svg>
