<svg width="1em" height="1em" viewBox="0 0 18 18" fill="none" xmlns="http://www.w3.org/2000/svg">
<path d="M3.62 7.78361C5.06 10.6113 7.38 12.9194 10.21 14.3682L12.41 12.17C12.68 11.9002 13.08 11.8103 13.43 11.9302C14.55 12.2999 15.76 12.4997 17 12.4997C17.55 12.4997 18 12.9494 18 13.4989V16.9861C18 17.5356 17.55 17.9852 17 17.9852C7.61 17.9852 0 10.3815 0 0.99918C0 0.449631 0.45 0 1 0H4.5C5.05 0 5.5 0.449631 5.5 0.99918C5.5 2.24815 5.7 3.44717 6.07 4.56625C6.18 4.91596 6.1 5.30564 5.82 5.58541L3.62 7.78361Z" fill="white"/>
</svg>
