<svg width="1em" height="1em" viewBox="0 0 37 41" fill="none" xmlns="http://www.w3.org/2000/svg">
<path d="M36.1226 0.689508C36.0481 0.284367 35.6268 0.0510062 35.254 0.0283184C32.0777 -0.179114 28.8042 0.773777 25.7219 2.20635C25.7057 2.19987 25.6927 2.19339 25.6733 2.18691C21.6899 1.01038 17.7131 2.64715 14.1964 4.50107C10.7673 6.30962 7.79523 8.8701 5.42597 11.9297C5.06944 12.39 5.06945 13.3299 5.82463 13.4368C7.25396 13.6443 8.68006 13.7804 10.1159 13.8452C8.19713 15.9487 6.42424 18.1786 4.80043 20.415C4.52818 20.7877 4.61569 21.154 4.85877 21.4035C4.89118 21.4619 4.93008 21.5202 4.9787 21.5753C5.09538 21.7114 5.2153 21.8378 5.32874 21.974C3.91885 22.7032 2.47655 23.52 1.52366 24.8229C0.236932 26.5796 0.405467 28.7382 0.0165322 30.7801C-0.0807015 31.2954 0.256378 31.9923 0.885156 31.921C1.24816 31.8821 1.61117 31.8432 1.97093 31.8043C1.39401 34.0634 1.3616 36.3451 1.79591 38.6884C1.85101 38.9834 2.14271 39.2524 2.42469 39.3172C3.16691 39.4922 4.22027 39.2103 5.18613 38.7727C5.20233 39.1487 5.29632 39.4987 5.49403 39.7807C6.22329 40.8114 8.02535 39.9881 8.90045 39.6251C12.336 38.199 15.4119 36.1182 17.5802 33.078C17.901 33.2142 18.2997 33.0845 18.546 32.8674C20.2768 31.3505 22.0238 29.7462 23.6929 28.0478C24.0397 29.3508 24.3865 30.6537 24.7301 31.9599C24.8986 32.5886 25.7835 32.8706 26.2372 32.3585C29.044 29.2017 31.3841 25.6786 33.0987 21.8119C34.6285 18.3601 36.1259 14.4513 34.7808 10.7273C36.0157 7.43429 36.7287 3.98897 36.1226 0.689508ZM14.0895 6.624C16.731 5.07475 19.8911 3.52225 23.022 3.59355C21.2427 4.59506 19.5637 5.69704 18.0469 6.75365C15.8235 8.29966 13.7362 10.1179 11.7851 12.0853C11.7656 12.0853 11.7462 12.0788 11.7267 12.0788C10.4076 12.0756 9.10464 12.0108 7.80171 11.8779C9.61026 9.81003 11.7008 8.02417 14.0895 6.624ZM11.0364 36.5623C10.239 37.0095 9.40607 37.4276 8.5731 37.8068C8.51152 37.836 7.33823 38.3838 6.92985 38.4227C7.16645 38.3189 7.31879 37.4471 7.43871 37.2623C8.01563 36.3808 6.74835 35.4862 6.02234 36.1701C5.40328 36.7502 4.60272 36.9609 3.81837 37.2234C3.72762 37.2526 3.56556 37.298 3.40027 37.3434C3.13125 35.188 3.36461 33.0878 4.09063 31.007C4.26889 30.4949 3.78596 29.8045 3.22201 29.8661C2.7877 29.9147 2.35338 29.9601 1.91583 30.0087C2.04223 28.6734 2.10058 27.2667 2.79094 26.1485C3.61094 24.8197 5.14075 24.0969 6.47933 23.4098C6.5085 23.3968 6.52795 23.3774 6.55388 23.3612C6.70621 23.5265 6.85854 23.6853 7.01088 23.8473C6.96874 23.8797 6.92985 23.9154 6.89096 23.9608C5.08241 26.1874 5.51348 29.8499 6.20384 32.4428C6.33997 32.9484 6.83586 33.1526 7.3123 33.0716C7.5327 33.0359 7.74661 32.9873 7.96377 32.9452C7.8957 33.3568 7.8633 33.7749 7.86005 34.2286C7.85681 34.8088 8.44021 35.2593 9.00093 35.0973C11.3799 34.4134 13.3926 33.1299 14.9743 31.2209C14.9873 31.2047 14.997 31.1885 15.0067 31.1723C15.3762 31.4607 15.7457 31.7459 16.1184 32.0279C14.8025 33.9272 13.0588 35.4279 11.0364 36.5623ZM17.8622 31.0686C13.7719 28.0738 10.0543 24.6446 6.71918 20.8298C10.1224 16.208 14.2515 11.5862 18.9577 8.30939C23.2813 5.29838 28.9857 1.79149 34.4762 1.80445C34.7938 4.57561 33.9414 7.44725 33.0112 10.0207C32.0064 12.8016 30.7262 15.5339 29.2515 18.0976C26.4187 23.0176 22.1145 27.3056 17.8622 31.0686ZM31.047 21.9934C29.6987 24.8035 28.0134 27.4158 26.0428 29.8207C25.7511 28.7155 25.4561 27.6135 25.1644 26.5083C27.511 23.9608 29.6307 21.2155 31.2318 18.2467C31.987 16.8433 32.7778 15.3426 33.5071 13.7772C33.5395 16.6099 32.2495 19.488 31.047 21.9934Z" fill="black"/>
<path d="M26.2697 9.24296C24.9506 8.59797 23.2587 8.78596 22.2248 9.87174C20.9089 11.2557 21.0386 13.612 22.5651 14.7853C24.3121 16.1271 26.8175 15.171 27.7671 13.3592C27.8352 13.2684 27.8903 13.1582 27.9227 13.0221C27.9649 12.9119 27.9811 12.8114 27.9843 12.7174C28.2177 11.2881 27.6343 9.91063 26.2697 9.24296ZM23.2685 12.8536C22.9087 12.0984 23.2134 11.139 23.9912 10.7955C25.2131 10.2574 26.4999 11.2557 26.1855 12.5424C25.7317 13.693 23.8421 14.0593 23.2685 12.8536Z" fill="black"/>
<path d="M16.8024 16.8756C14.9614 17.2321 13.7655 19.0147 14.3067 20.8363C14.3294 20.9108 14.3586 20.9789 14.3942 21.0405C14.3975 21.0437 14.3975 21.0469 14.3975 21.0534C15.117 22.7485 17.2464 23.5232 18.8767 22.6448C20.1245 21.9739 20.8473 20.4311 20.4875 19.0439C20.0759 17.4428 18.3776 16.5709 16.8024 16.8756ZM18.1118 21.0016C17.3112 21.5039 16.4394 21.0502 16.0375 20.2982C15.5805 18.548 18.5429 17.9257 18.773 19.6241C18.8443 20.1524 18.5558 20.7228 18.1118 21.0016Z" fill="black"/>
</svg>
