<svg width="1em" height="1em" viewBox="0 0 45 43" fill="none" xmlns="http://www.w3.org/2000/svg">
<path d="M44.0963 4.546C42.7562 4.44099 41.4162 4.38341 40.0727 4.36648C40.1743 3.21484 40.1979 2.0666 40.1336 0.908186C40.0694 -0.297643 38.1845 -0.307804 38.2488 0.908186C38.3232 2.29692 38.2758 3.67211 38.1168 5.0473C37.5991 5.52489 37.0813 6.00248 36.5669 6.47668C36.594 6.14474 36.6279 5.82634 36.6346 5.54182C36.6515 4.68826 36.6718 3.83469 36.6888 2.98113C36.7158 1.76853 34.831 1.76853 34.8039 2.98113C34.7768 4.22083 34.7498 5.46392 34.7261 6.70362C34.7159 7.14056 34.6313 7.70283 34.699 8.19736C33.5823 9.22705 32.4656 10.2568 31.3489 11.2864C28.195 8.22445 24.009 6.23958 19.5422 5.51811C12.1787 4.33938 6.12478 9.3998 2.7002 15.5306C-1.36056 22.8062 -1.08307 31.5992 5.1908 37.5369C10.7879 42.8311 20.9736 45.0429 27.7179 40.687C34.8783 36.0601 38.4857 26.5287 35.9172 18.3758C35.1592 16.2351 34.0357 14.3281 32.6348 12.6718C33.8056 11.5913 34.9731 10.5142 36.144 9.43367C36.8207 9.5319 37.6024 9.48786 38.1473 9.53867C39.3655 9.65722 40.5837 9.77577 41.8019 9.89094C43.0066 10.0061 42.9999 8.11945 41.8019 8.00429C40.8104 7.90945 39.8223 7.81122 38.8308 7.71638C38.5872 7.69267 38.3232 7.67912 38.0525 7.66896C38.5669 7.19476 39.0779 6.72055 39.5922 6.24635C41.0947 6.25651 42.5972 6.31409 44.0963 6.42926C45.3044 6.52749 45.2976 4.64084 44.0963 4.546ZM34.1 18.8771C36.1 25.2178 34.0357 32.2835 29.3591 36.9306C23.8601 42.3874 14.9705 42.069 8.72366 37.9366C1.93543 33.4486 0.212987 25.3195 3.51235 18.0879C5.94204 12.7632 11.0654 6.94072 17.4272 7.17443C22.0396 7.34379 26.6418 9.33544 29.9716 12.56C29.2373 13.2375 28.4996 13.9149 27.7652 14.5957C25.4946 12.3195 22.5099 10.8393 19.1057 10.6022C13.5492 10.2127 9.15004 13.0918 7.01814 18.1454C5.22803 22.3862 4.27713 28.5508 7.43776 32.3885C11.2921 37.0661 17.9382 39.8944 23.7417 37.4455C30.5604 34.5698 33.5586 26.5185 31.1323 19.7035C30.5875 18.3622 29.8701 17.1225 29.0105 16.0115C29.7584 15.3206 30.5063 14.6296 31.2575 13.9386C32.4791 15.4052 33.4571 17.0616 34.1 18.8771ZM24.2019 28.8218C21.4948 32.087 15.7589 32.5239 13.0179 29.1639C12.9976 29.1402 12.9841 29.1131 12.9672 29.086C12.9333 29.0487 12.8995 29.0148 12.8724 28.9708C10.7067 25.8241 10.6356 20.8789 13.9147 18.4266C16.6117 16.4112 20.642 16.7398 23.251 18.7619C21.5354 20.3437 19.8197 21.9255 18.104 23.5107C17.2107 24.3338 18.5439 25.6649 19.4373 24.8452C21.1462 23.2702 22.8517 21.6952 24.5606 20.1168C26.3914 22.6639 26.2628 26.339 24.2019 28.8218Z" fill="black"/>
</svg>
