<svg width="1em" height="1em" viewBox="0 0 22 48" fill="none" xmlns="http://www.w3.org/2000/svg">
<g clip-path="url(#clip0_902_1196)">
<rect width="22" height="48" fill="white"/>
<path d="M21.8692 37.0707C21.7663 36.2983 21.6573 35.526 21.5513 34.757C21.6947 34.4375 21.623 34.1345 21.436 33.9148C21.3518 33.2923 21.2646 32.6731 21.1835 32.0506C20.2704 25.0732 19.4819 18.079 18.5001 11.1116C19.4912 10.276 20.2704 9.35722 20.4854 7.78929C20.6194 6.81058 20.5789 5.81856 20.5415 4.83319C20.5072 3.8678 20.6475 2.86579 20.5883 1.91704C20.4636 -0.000432614 19.058 -0.0303932 17.6431 0.016212C14.6917 0.11608 11.7247 0.0295278 8.77328 0.0395146C7.1807 0.0661461 6.3548 0.422343 6.46077 2.26658C6.54803 3.78124 6.71009 5.29258 6.79736 6.81058C6.86281 7.9857 6.95319 9.1708 7.59521 10.1695C7.8383 10.5457 8.14372 10.9218 8.48967 11.288C6.79424 16.7042 4.57211 21.3614 0.261872 24.9766C0.0437109 25.1597 -0.0622531 25.6058 0.0374777 25.8788C0.635863 27.48 1.0566 29.6604 2.01339 31.0453C2.26584 31.4115 2.57438 31.5446 2.992 31.4714C4.22617 31.2517 5.62864 30.2929 6.86281 29.4041C6.74749 30.5393 6.63218 31.6711 6.51998 32.8063C6.34545 34.6039 6.11483 36.4115 6.01821 38.2158C5.95588 39.4076 6.03379 40.3264 6.75684 41.2751C7.61702 42.4036 8.84496 43.3091 9.88278 44.2445C11.1886 45.4263 12.5101 46.5881 13.844 47.7366C14.2117 48.0528 14.7073 48.1194 15.0719 47.7366C16.2811 46.4583 17.4904 45.1766 18.6996 43.8983C19.591 42.9562 20.7285 42.0041 21.4235 40.8723C22.1497 39.6939 22.0499 38.4022 21.8692 37.0707ZM8.13437 40.0401C7.38639 38.6819 7.87881 36.841 8.01906 35.3096C8.03153 35.1798 8.04399 35.0467 8.05646 34.9168C8.11879 34.8802 8.18112 34.8403 8.24034 34.7837C11.7122 31.5546 15.1498 28.2789 18.5562 24.97C18.6747 25.9187 18.7931 26.8641 18.9115 27.8129C15.3181 31.8908 11.7278 35.9654 8.13437 40.0401ZM12.535 14.1675C12.9526 14.3573 13.3297 14.4205 13.6881 14.3972C12.3418 15.6123 11.0172 16.8607 9.78305 18.1989C9.97628 16.4279 10.1695 14.6602 10.3596 12.8892C11.1014 13.4152 11.8618 13.8613 12.535 14.1675ZM9.44646 21.2948C9.48074 21.2615 9.51814 21.2282 9.55242 21.1883C11.7901 18.402 14.486 16.0883 17.1195 13.7381C17.2722 14.86 17.4218 15.9785 17.5683 17.1003C17.4499 17.137 17.3314 17.2002 17.2223 17.3034C14.5047 19.8034 11.7901 22.3035 9.07247 24.8002C9.19713 23.6317 9.32179 22.4633 9.44646 21.2948ZM8.46473 30.6824C8.57381 29.5739 8.69224 28.4653 8.80444 27.3568C8.9291 27.3235 9.05377 27.2569 9.1722 27.1504C12.0582 24.4939 14.9441 21.8374 17.8301 19.1809C17.9797 20.3694 18.1293 21.5578 18.2789 22.7462C14.9909 25.952 11.6655 29.1145 8.31514 32.247C8.365 31.7244 8.41487 31.2017 8.46473 30.6824ZM8.77328 1.88708C10.3877 1.88042 12.0021 1.88708 13.6165 1.88042C14.5109 1.87709 15.4085 1.87376 16.303 1.87043C16.7673 1.8671 17.8955 1.6141 18.335 1.81051C18.7619 1.65738 18.9271 1.8438 18.8305 2.37643C18.7744 2.70933 18.7495 3.04888 18.7526 3.38843C18.7432 4.00095 18.8087 4.62347 18.8274 5.23599C18.8679 6.62749 18.977 8.01566 18.0576 9.08758C17.107 10.1928 15.5519 11.3646 14.3333 12.1302C13.4513 12.6862 13.23 12.4898 12.4166 11.9771C11.6624 11.4977 10.9487 10.9584 10.2692 10.3659C9.6989 9.86655 9.06935 9.36721 8.77328 8.61154C8.39928 7.66279 8.552 6.42109 8.50213 5.41575C8.45538 4.5003 8.41798 3.50827 8.23411 2.60946C8.03464 1.65405 7.99724 1.90039 8.77328 1.88708ZM4.9648 28.3588C4.4381 28.6751 3.77738 29.1811 3.14472 29.474C2.61801 28.4221 2.26584 27.0439 1.89808 25.922C4.72483 23.432 6.66958 20.4726 8.16242 17.1503C7.80402 20.4293 7.44873 23.7116 7.1059 26.994C6.40155 27.4633 5.69097 27.9227 4.9648 28.3588ZM9.30933 41.4083C12.6098 37.6665 15.9103 33.9215 19.2076 30.1798C19.3697 31.4414 19.5317 32.7064 19.7 33.9681C19.7156 34.0746 19.7312 34.1845 19.7468 34.2943C17.4312 37.6998 14.7821 40.7924 11.8275 43.5787C11.7527 43.5122 11.6779 43.4456 11.6 43.379C10.9019 42.7498 10.0542 42.104 9.30933 41.4083ZM19.6969 40.2265C19.0175 41.2818 17.8799 42.1639 17.0229 43.0694C16.1502 43.9949 15.2745 44.917 14.4018 45.8424C13.9936 45.4862 13.5822 45.1334 13.177 44.7738C15.742 42.337 18.0669 39.6639 20.1613 36.7744C20.3171 38.0261 20.3109 39.2744 19.6969 40.2265Z" fill="black"/>
</g>
<defs>
<clipPath id="clip0_902_1196">
<rect width="22" height="48" fill="white"/>
</clipPath>
</defs>
</svg>
