<svg width="1em" height="1em" viewBox="0 0 257 40" fill="none" xmlns="http://www.w3.org/2000/svg">
<path d="M57.2727 32C64.3636 32 68.6591 27.6136 68.6591 20.3409C68.6591 13.0909 64.3636 8.72727 57.3409 8.72727H49.0227V32H57.2727ZM53.9432 27.7841V12.9432H57.0795C61.4432 12.9432 63.75 15.1705 63.75 20.3409C63.75 25.5341 61.4432 27.7841 57.0682 27.7841H53.9432ZM73.804 32H89.5312V27.9432H78.7244V22.3864H88.679V18.3295H78.7244V12.7841H89.4858V8.72727H73.804V32ZM99.1023 8.72727H93.6364L101.67 32H108.011L116.034 8.72727H110.58L104.943 26.4091H104.727L99.1023 8.72727ZM120.335 32H136.062V27.9432H125.256V22.3864H135.21V18.3295H125.256V12.7841H136.017V8.72727H120.335V32ZM141.429 32H156.327V27.9432H146.349V8.72727H141.429V32ZM161.085 32H166.006V23.75H169.597L174.006 32H179.438L174.494 22.9545C177.142 21.8182 178.608 19.5114 178.608 16.3295C178.608 11.7045 175.551 8.72727 170.267 8.72727H161.085V32ZM166.006 19.7955V12.75H169.324C172.165 12.75 173.54 14.0114 173.54 16.3295C173.54 18.6364 172.165 19.7955 169.347 19.7955H166.006ZM204.972 20.3636C204.972 12.75 200.244 8.40909 194.074 8.40909C187.869 8.40909 183.176 12.75 183.176 20.3636C183.176 27.9432 187.869 32.3182 194.074 32.3182C200.244 32.3182 204.972 27.9773 204.972 20.3636ZM199.983 20.3636C199.983 25.2955 197.642 27.9659 194.074 27.9659C190.494 27.9659 188.165 25.2955 188.165 20.3636C188.165 15.4318 190.494 12.7614 194.074 12.7614C197.642 12.7614 199.983 15.4318 199.983 20.3636ZM231.503 20.3636C231.503 12.75 226.776 8.40909 220.605 8.40909C214.401 8.40909 209.707 12.75 209.707 20.3636C209.707 27.9432 214.401 32.3182 220.605 32.3182C226.776 32.3182 231.503 27.9773 231.503 20.3636ZM226.514 20.3636C226.514 25.2955 224.173 27.9659 220.605 27.9659C217.026 27.9659 214.696 25.2955 214.696 20.3636C214.696 15.4318 217.026 12.7614 220.605 12.7614C224.173 12.7614 226.514 15.4318 226.514 20.3636ZM234.73 12.7841H241.855V32H246.719V12.7841H253.844V8.72727H234.73V12.7841Z" fill="url(#paint0_linear_923_18)"/>
<path d="M11.6839 37.4938C10.9783 37.4938 10.3249 37.122 9.96452 36.5154L0.60706 20.766C0.232892 20.1362 0.232944 19.3523 0.607194 18.7226L9.96448 2.97819C10.3249 2.37171 10.9782 2 11.6838 2H30.4942C31.1997 2 31.853 2.37171 32.2134 2.97819L41.5707 18.7226C41.945 19.3523 41.945 20.1362 41.5709 20.766L32.2134 36.5154C31.853 37.122 31.1996 37.4938 30.494 37.4938H11.6839Z" fill="url(#paint1_linear_923_18)"/>
<path d="M13 12L8 20.2559L12.9123 27" stroke="white" stroke-width="5" stroke-miterlimit="10" stroke-linecap="round" stroke-linejoin="round"/>
<path d="M30 12L35 20.2559L30.0842 27" stroke="white" stroke-width="5" stroke-miterlimit="10" stroke-linecap="round" stroke-linejoin="round"/>
<path d="M24 12L19 27" stroke="white" stroke-width="5" stroke-miterlimit="10" stroke-linecap="round" stroke-linejoin="round"/>
<defs>
<linearGradient id="paint0_linear_923_18" x1="152" y1="0" x2="152" y2="40" gradientUnits="userSpaceOnUse">
<stop stop-color="#4776E6"/>
<stop offset="1" stop-color="#038A10"/>
</linearGradient>
<linearGradient id="paint1_linear_923_18" x1="0" y1="19.7469" x2="42.1779" y2="19.7469" gradientUnits="userSpaceOnUse">
<stop stop-color="#15579E"/>
<stop offset="1" stop-color="#00CA4E"/>
</linearGradient>
</defs>
</svg>
